<svg width="1123" height="1123" viewBox="0 0 1123 1123" fill="none" xmlns="http://www.w3.org/2000/svg">
<rect width="1123" height="1123" fill="white"/>
<path d="M221.8 537.4C225.4 532.067 230.333 527.734 236.6 524.4C243 521.067 250.267 519.4 258.4 519.4C267.867 519.4 276.4 521.734 284 526.4C291.733 531.067 297.8 537.734 302.2 546.4C306.733 554.934 309 564.867 309 576.2C309 587.534 306.733 597.6 302.2 606.4C297.8 615.067 291.733 621.8 284 626.6C276.4 631.4 267.867 633.8 258.4 633.8C250.133 633.8 242.867 632.2 236.6 629C230.467 625.667 225.533 621.4 221.8 616.2V632H193.8V484H221.8V537.4ZM280.4 576.2C280.4 569.534 279 563.8 276.2 559C273.533 554.067 269.933 550.334 265.4 547.8C261 545.267 256.2 544 251 544C245.933 544 241.133 545.334 236.6 548C232.2 550.534 228.6 554.267 225.8 559.2C223.133 564.134 221.8 569.934 221.8 576.6C221.8 583.267 223.133 589.067 225.8 594C228.6 598.934 232.2 602.734 236.6 605.4C241.133 607.934 245.933 609.2 251 609.2C256.2 609.2 261 607.867 265.4 605.2C269.933 602.534 273.533 598.734 276.2 593.8C279 588.867 280.4 583 280.4 576.2Z" fill="black"/>
<path d="M333.547 508C328.614 508 324.48 506.467 321.147 503.4C317.947 500.2 316.347 496.267 316.347 491.6C316.347 486.934 317.947 483.067 321.147 480C324.48 476.8 328.614 475.2 333.547 475.2C338.48 475.2 342.547 476.8 345.747 480C349.08 483.067 350.747 486.934 350.747 491.6C350.747 496.267 349.08 500.2 345.747 503.4C342.547 506.467 338.48 508 333.547 508ZM347.347 521.2V632H319.347V521.2H347.347Z" fill="black"/>
<path d="M430.611 632L393.011 584.8V632H365.011V484H393.011V568.2L430.211 521.2H466.611L417.811 576.8L467.011 632H430.611Z" fill="black"/>
<path d="M464.608 576.6C464.608 565.134 466.941 555.134 471.608 546.6C476.275 537.934 482.741 531.267 491.008 526.6C499.275 521.8 508.741 519.4 519.408 519.4C533.141 519.4 544.475 522.867 553.408 529.8C562.475 536.6 568.541 546.2 571.608 558.6H541.408C539.808 553.8 537.075 550.067 533.208 547.4C529.475 544.6 524.808 543.2 519.208 543.2C511.208 543.2 504.875 546.134 500.208 552C495.541 557.734 493.208 565.934 493.208 576.6C493.208 587.134 495.541 595.334 500.208 601.2C504.875 606.934 511.208 609.8 519.208 609.8C530.541 609.8 537.941 604.734 541.408 594.6H571.608C568.541 606.6 562.475 616.134 553.408 623.2C544.341 630.267 533.008 633.8 519.408 633.8C508.741 633.8 499.275 631.467 491.008 626.8C482.741 622 476.275 615.334 471.608 606.8C466.941 598.134 464.608 588.067 464.608 576.6Z" fill="black"/>
<path d="M610.12 538.4C613.72 532.534 618.387 527.934 624.12 524.6C629.987 521.267 636.654 519.6 644.12 519.6V549H636.72C627.92 549 621.254 551.067 616.72 555.2C612.32 559.334 610.12 566.534 610.12 576.8V632H582.12V521.2H610.12V538.4Z" fill="black"/>
<path d="M645.78 576.2C645.78 565 647.98 555.067 652.38 546.4C656.913 537.734 662.98 531.067 670.58 526.4C678.313 521.734 686.913 519.4 696.38 519.4C704.646 519.4 711.846 521.067 717.98 524.4C724.246 527.734 729.246 531.934 732.98 537V521.2H761.18V632H732.98V615.8C729.38 621 724.38 625.334 717.98 628.8C711.713 632.134 704.446 633.8 696.18 633.8C686.846 633.8 678.313 631.4 670.58 626.6C662.98 621.8 656.913 615.067 652.38 606.4C647.98 597.6 645.78 587.534 645.78 576.2ZM732.98 576.6C732.98 569.8 731.646 564 728.98 559.2C726.313 554.267 722.713 550.534 718.18 548C713.646 545.334 708.78 544 703.58 544C698.38 544 693.58 545.267 689.18 547.8C684.78 550.334 681.18 554.067 678.38 559C675.713 563.8 674.38 569.534 674.38 576.2C674.38 582.867 675.713 588.734 678.38 593.8C681.18 598.734 684.78 602.534 689.18 605.2C693.713 607.867 698.513 609.2 703.58 609.2C708.78 609.2 713.646 607.934 718.18 605.4C722.713 602.734 726.313 599 728.98 594.2C731.646 589.267 732.98 583.4 732.98 576.6Z" fill="black"/>
<path d="M829.327 544.2H809.927V632H781.527V544.2H768.927V521.2H781.527V515.6C781.527 502 785.393 492 793.127 485.6C800.86 479.2 812.527 476.2 828.127 476.6V500.2C821.327 500.067 816.593 501.2 813.927 503.6C811.26 506 809.927 510.334 809.927 516.6V521.2H829.327V544.2Z" fill="black"/>
<path d="M870.072 544.2V597.8C870.072 601.534 870.939 604.267 872.672 606C874.539 607.6 877.605 608.4 881.872 608.4H894.872V632H877.272C853.672 632 841.872 620.534 841.872 597.6V544.2H828.672V521.2H841.872V493.8H870.072V521.2H894.872V544.2H870.072Z" fill="black"/>
<path d="M917.411 633.4C912.344 633.4 908.144 631.867 904.811 628.8C901.611 625.6 900.011 621.667 900.011 617C900.011 612.334 901.611 608.467 904.811 605.4C908.144 602.2 912.344 600.6 917.411 600.6C922.344 600.6 926.411 602.2 929.611 605.4C932.811 608.467 934.411 612.334 934.411 617C934.411 621.667 932.811 625.6 929.611 628.8C926.411 631.867 922.344 633.4 917.411 633.4Z" fill="black"/>
</svg>
