<svg width="1123" height="1123" viewBox="0 0 1123 1123" fill="none" xmlns="http://www.w3.org/2000/svg">
<path d="M0 0H1123V1123H0V0Z" fill="white"/>
<path d="M336.188 540.625L333.812 546.438C324.562 551.146 314.688 553.5 304.188 553.5C289.146 553.5 276.917 549.229 267.5 540.688C258.125 532.146 253.438 520.979 253.438 507.188C253.438 497.688 255.771 489.396 260.438 482.312C265.146 475.188 271.333 469.875 279 466.375C286.708 462.833 295.354 461.062 304.938 461.062C310.479 461.062 315.958 461.646 321.375 462.812C326.792 463.979 331.312 465.375 334.938 467L335.375 467.625C334.417 469.958 333.521 475.729 332.688 484.938L332.25 485.438H329.312L328.812 484.938L328.188 474.312C325.146 471.896 321.458 470.021 317.125 468.688C312.833 467.312 308.354 466.625 303.688 466.625C296.646 466.625 290.333 468.146 284.75 471.188C279.167 474.188 274.833 478.562 271.75 484.312C268.667 490.021 267.125 497.021 267.125 505.312C267.125 513.646 268.938 520.958 272.562 527.25C276.188 533.542 281.125 538.375 287.375 541.75C293.667 545.125 301 546.812 309.375 546.812C313.083 546.812 316.646 546.458 320.062 545.75C323.479 545.042 326.312 544.167 328.562 543.125C330.854 542.083 333.042 540.812 335.125 539.312L336.188 540.625Z" fill="black"/>
<path d="M336.35 508.125C336.35 501.875 337.246 496.042 339.037 490.625C340.829 485.208 343.871 480.208 348.162 475.625C352.496 471 357.704 467.438 363.787 464.938C369.871 462.396 376.746 461.125 384.413 461.125C398.621 461.125 409.933 465 418.35 472.75C426.767 480.458 430.975 491 430.975 504.375C430.975 513.792 428.913 522.25 424.788 529.75C420.663 537.25 414.746 543.083 407.038 547.25C399.371 551.417 390.746 553.5 381.162 553.5C374.371 553.5 368.121 552.375 362.412 550.125C356.704 547.833 351.829 544.438 347.787 539.938C343.787 535.438 340.871 530.229 339.037 524.312C337.246 518.396 336.35 513 336.35 508.125ZM349.35 504C349.35 509.083 350.162 514.562 351.787 520.438C353.454 526.271 355.912 531.292 359.162 535.5C362.454 539.667 366.225 542.771 370.475 544.812C374.767 546.854 379.642 547.875 385.1 547.875C391.558 547.875 397.308 546.396 402.35 543.438C407.392 540.479 411.225 535.896 413.85 529.688C416.475 523.438 417.788 516.438 417.788 508.688C417.788 500.271 416.288 492.667 413.288 485.875C410.288 479.083 406.017 474.146 400.475 471.062C394.933 467.979 388.788 466.438 382.038 466.438C371.913 466.438 363.933 469.604 358.1 475.938C352.267 482.271 349.35 491.625 349.35 504Z" fill="black"/>
<path d="M417.575 508.125C417.575 501.875 418.471 496.042 420.262 490.625C422.054 485.208 425.096 480.208 429.387 475.625C433.721 471 438.929 467.438 445.012 464.938C451.096 462.396 457.971 461.125 465.637 461.125C479.846 461.125 491.158 465 499.575 472.75C507.992 480.458 512.2 491 512.2 504.375C512.2 513.792 510.138 522.25 506.013 529.75C501.888 537.25 495.971 543.083 488.262 547.25C480.596 551.417 471.971 553.5 462.387 553.5C455.596 553.5 449.346 552.375 443.637 550.125C437.929 547.833 433.054 544.438 429.012 539.938C425.012 535.438 422.096 530.229 420.262 524.312C418.471 518.396 417.575 513 417.575 508.125ZM430.575 504C430.575 509.083 431.387 514.562 433.012 520.438C434.679 526.271 437.137 531.292 440.387 535.5C443.679 539.667 447.45 542.771 451.7 544.812C455.992 546.854 460.867 547.875 466.325 547.875C472.783 547.875 478.533 546.396 483.575 543.438C488.617 540.479 492.45 535.896 495.075 529.688C497.7 523.438 499.013 516.438 499.013 508.688C499.013 500.271 497.512 492.667 494.512 485.875C491.512 479.083 487.242 474.146 481.7 471.062C476.158 467.979 470.012 466.438 463.262 466.438C453.137 466.438 445.158 469.604 439.325 475.938C433.492 482.271 430.575 491.625 430.575 504Z" fill="black"/>
<path d="M525.487 462.875C535.987 463.208 542.675 463.375 545.55 463.375C549.467 463.375 553.862 463.271 558.737 463.062C563.904 462.896 567.092 462.812 568.3 462.812C574.133 462.812 578.946 463.417 582.737 464.625C586.571 465.833 589.737 468.042 592.237 471.25C594.737 474.458 595.987 478.333 595.987 482.875C595.987 486.625 595.112 490.25 593.362 493.75C591.612 497.25 589.175 500.229 586.05 502.688C582.925 505.146 579.758 506.917 576.55 508C573.342 509.042 570.008 509.562 566.55 509.562C563.967 509.562 561.092 509.271 557.925 508.688L556.862 504.875L557.425 504.25C560.55 504.958 563.092 505.312 565.05 505.312C570.508 505.312 574.883 503.521 578.175 499.938C581.508 496.312 583.175 491.688 583.175 486.062C583.175 480.396 581.446 475.875 577.987 472.5C574.571 469.125 569.383 467.438 562.425 467.438C558.633 467.438 554.467 468.146 549.925 469.562C549.55 472.771 549.362 480.521 549.362 492.812V521.75L549.425 533.938C549.467 538.646 549.592 541.688 549.8 543.062C550.008 544.438 550.3 545.354 550.675 545.812C551.092 546.271 551.862 546.667 552.987 547C554.112 547.292 556.883 547.521 561.3 547.688L561.8 548.062V551.188L561.3 551.688C550.675 551.354 544.696 551.188 543.362 551.188C541.946 551.188 535.987 551.354 525.487 551.688L524.987 551.188V548.062L525.487 547.688C529.362 547.521 531.946 547.312 533.237 547.062C534.529 546.812 535.383 546.5 535.8 546.125C536.258 545.708 536.612 544.854 536.862 543.562C537.154 542.271 537.321 539.396 537.362 534.938L537.425 521.75V492.812L537.3 480.625C537.258 475.875 537.133 472.812 536.925 471.438C536.758 470.062 536.467 469.146 536.05 468.688C535.675 468.229 534.925 467.854 533.8 467.562C532.675 467.271 529.904 467.042 525.487 466.875L524.987 466.438V463.312L525.487 462.875Z" fill="black"/>
<path d="M620.025 509.062V521.75L620.087 533.938C620.129 538.479 620.254 541.5 620.462 543C620.671 544.458 620.962 545.417 621.337 545.875C621.754 546.292 622.525 546.667 623.65 547C624.775 547.292 627.546 547.521 631.962 547.688L632.462 548.062V551.188L631.962 551.688C621.379 551.354 615.4 551.188 614.025 551.188C612.692 551.188 606.733 551.354 596.15 551.688L595.65 551.188V548.062L596.15 547.688C600.067 547.521 602.65 547.312 603.9 547.062C605.192 546.812 606.046 546.479 606.462 546.062C606.921 545.646 607.275 544.812 607.525 543.562C607.817 542.312 607.983 539.479 608.025 535.062L608.087 521.75V492.812L607.962 480.625C607.921 475.875 607.796 472.812 607.587 471.438C607.421 470.062 607.129 469.146 606.712 468.688C606.337 468.229 605.587 467.854 604.462 467.562C603.337 467.271 600.567 467.042 596.15 466.875L595.65 466.438V463.312L596.15 462.875C613.817 463.125 624.129 463.25 627.087 463.25C637.004 463.25 647.171 463.125 657.587 462.875L658.087 463.312C657.421 465.396 656.983 467.771 656.775 470.438C656.567 473.062 656.337 476.792 656.087 481.625L655.587 482.125H652.65L652.212 481.625C652.129 481.333 651.942 479.729 651.65 476.812C651.442 474.521 651.108 472.417 650.65 470.5C646.317 469.042 640.337 468.312 632.712 468.312C629.296 468.312 625.296 468.562 620.712 469.062C620.254 472.312 620.025 480.229 620.025 492.812V503.625C625.317 503.708 628.921 503.75 630.837 503.75C634.379 503.75 637.421 503.625 639.962 503.375C642.504 503.083 644.025 502.812 644.525 502.562C645.025 502.312 645.4 501.854 645.65 501.188C645.942 500.479 646.212 498.958 646.462 496.625L646.837 493.25L647.275 492.75H650.462L650.962 493.312L650.525 507C650.525 508.583 650.587 510.875 650.712 513.875C650.879 517.292 650.962 519.938 650.962 521.812L650.4 522.312H647.275L646.837 521.812L646.587 516.5C646.462 514.417 646.254 512.896 645.962 511.938C645.671 510.979 645.192 510.354 644.525 510.062C643.858 509.771 642.379 509.5 640.087 509.25C637.796 509 634.275 508.875 629.525 508.875C625.317 508.875 622.15 508.938 620.025 509.062Z" fill="black"/>
<path d="M652.5 551.688L651.938 551.188V547.938L652.5 547.438C655.542 547.396 657.5 547.25 658.375 547C659.25 546.708 660.021 546.167 660.688 545.375C661.396 544.542 662.792 541.875 664.875 537.375L671.438 523.125L688.438 484.625C691.646 477.083 694.833 469.542 698 462H702.062L732.312 533.125C733.354 535.5 734.542 538.083 735.875 540.875C737.25 543.667 738.188 545.312 738.688 545.812C739.229 546.312 739.875 546.708 740.625 547C741.417 547.25 743.146 547.396 745.812 547.438L746.312 547.938V551.188L745.812 551.688C741.396 551.312 737.417 551.125 733.875 551.125C726.958 551.333 720.042 551.521 713.125 551.688L712.625 551.188V547.938L713.125 547.438C717.792 547.354 720.708 547.167 721.875 546.875C723.042 546.542 723.625 545.812 723.625 544.688C723.625 543.771 723.333 542.562 722.75 541.062L715.062 522H678.875L672.062 538C670.854 540.875 670.25 542.979 670.25 544.312C670.25 545.354 670.812 546.125 671.938 546.625C673.062 547.125 675.896 547.396 680.438 547.438L681 547.938V551.188L680.5 551.688C675.125 551.354 670.417 551.188 666.375 551.188C661.792 551.188 657.167 551.354 652.5 551.688ZM681 516.625H712.625L696.938 478.938L681 516.625Z" fill="black"/>
<path d="M747.913 529.688L748.413 529.188H751.475L751.975 529.688C752.183 535.021 752.454 538.292 752.788 539.5C753.163 540.667 754.288 541.917 756.163 543.25C758.079 544.542 760.6 545.604 763.725 546.438C766.892 547.271 770.079 547.688 773.287 547.688C777.704 547.688 781.662 546.875 785.162 545.25C788.704 543.625 791.454 541.25 793.412 538.125C795.371 534.958 796.35 531.417 796.35 527.5C796.35 524.75 795.871 522.354 794.912 520.312C793.996 518.271 792.683 516.646 790.975 515.438C789.308 514.188 787.392 513.271 785.225 512.688C783.058 512.062 779.829 511.396 775.537 510.688C771.371 510.021 768.1 509.417 765.725 508.875C763.392 508.333 761.058 507.5 758.725 506.375C756.392 505.25 754.433 503.833 752.85 502.125C751.308 500.375 750.058 498.25 749.1 495.75C748.183 493.208 747.725 490.5 747.725 487.625C747.725 479.833 750.433 473.458 755.85 468.5C761.267 463.5 768.537 461 777.662 461C781.287 461 785.225 461.458 789.475 462.375C793.767 463.25 797.662 464.562 801.162 466.312L801.6 467.062C800.683 470.896 800.121 476.354 799.912 483.438L799.35 483.938H796.1L795.6 483.5C795.517 478.5 795.392 475.354 795.225 474.062C795.058 472.771 793.162 471.167 789.537 469.25C785.912 467.333 781.975 466.375 777.725 466.375C774.183 466.375 770.871 467.083 767.787 468.5C764.704 469.917 762.371 472.146 760.788 475.188C759.204 478.229 758.413 481.333 758.413 484.5C758.413 486.958 758.892 489.146 759.85 491.062C760.808 492.938 762.038 494.438 763.538 495.562C765.079 496.646 766.85 497.458 768.85 498C770.892 498.542 774.6 499.208 779.975 500C787.35 501.042 792.704 502.312 796.037 503.812C799.412 505.271 802.1 507.604 804.1 510.812C806.142 514.021 807.162 517.896 807.162 522.438C807.162 531.312 803.537 538.708 796.287 544.625C789.079 550.542 780.329 553.5 770.037 553.5C761.412 553.5 753.85 551.958 747.35 548.875L746.975 548.062C747.392 545.438 747.704 539.312 747.913 529.688Z" fill="black"/>
<path d="M808.763 529.688L809.263 529.188H812.325L812.825 529.688C813.033 535.021 813.304 538.292 813.638 539.5C814.013 540.667 815.138 541.917 817.013 543.25C818.929 544.542 821.45 545.604 824.575 546.438C827.742 547.271 830.929 547.688 834.138 547.688C838.554 547.688 842.513 546.875 846.013 545.25C849.554 543.625 852.304 541.25 854.263 538.125C856.221 534.958 857.2 531.417 857.2 527.5C857.2 524.75 856.721 522.354 855.763 520.312C854.846 518.271 853.533 516.646 851.825 515.438C850.158 514.188 848.242 513.271 846.075 512.688C843.908 512.062 840.679 511.396 836.388 510.688C832.221 510.021 828.95 509.417 826.575 508.875C824.242 508.333 821.908 507.5 819.575 506.375C817.242 505.25 815.283 503.833 813.7 502.125C812.158 500.375 810.908 498.25 809.95 495.75C809.033 493.208 808.575 490.5 808.575 487.625C808.575 479.833 811.283 473.458 816.7 468.5C822.117 463.5 829.388 461 838.513 461C842.138 461 846.075 461.458 850.325 462.375C854.617 463.25 858.513 464.562 862.013 466.312L862.45 467.062C861.533 470.896 860.971 476.354 860.763 483.438L860.2 483.938H856.95L856.45 483.5C856.367 478.5 856.242 475.354 856.075 474.062C855.908 472.771 854.013 471.167 850.388 469.25C846.763 467.333 842.825 466.375 838.575 466.375C835.033 466.375 831.721 467.083 828.638 468.5C825.554 469.917 823.221 472.146 821.638 475.188C820.054 478.229 819.263 481.333 819.263 484.5C819.263 486.958 819.742 489.146 820.7 491.062C821.658 492.938 822.888 494.438 824.388 495.562C825.929 496.646 827.7 497.458 829.7 498C831.742 498.542 835.45 499.208 840.825 500C848.2 501.042 853.554 502.312 856.888 503.812C860.263 505.271 862.95 507.604 864.95 510.812C866.992 514.021 868.013 517.896 868.013 522.438C868.013 531.312 864.388 538.708 857.138 544.625C849.929 550.542 841.179 553.5 830.888 553.5C822.263 553.5 814.7 551.958 808.2 548.875L807.825 548.062C808.242 545.438 808.554 539.312 808.763 529.688Z" fill="black"/>
<path d="M424.5 479C431.02 488.727 431.5 504.5 432.5 503" stroke="white"/>
<path d="M424 534.133C417.52 524.379 417.105 508.604 416.099 510.1" stroke="white"/>
<path d="M181.696 599.027C181.696 599.859 181.648 600.739 181.552 601.667H160.528C160.688 604.259 161.568 606.291 163.168 607.763C164.8 609.203 166.768 609.923 169.072 609.923C170.96 609.923 172.528 609.491 173.776 608.627C175.056 607.731 175.952 606.547 176.464 605.075H181.168C180.464 607.603 179.056 609.667 176.944 611.267C174.832 612.835 172.208 613.62 169.072 613.62C166.576 613.62 164.336 613.06 162.352 611.939C160.4 610.819 158.864 609.235 157.744 607.188C156.624 605.107 156.064 602.707 156.064 599.987C156.064 597.267 156.608 594.883 157.696 592.835C158.784 590.787 160.304 589.219 162.256 588.131C164.24 587.011 166.512 586.451 169.072 586.451C171.568 586.451 173.776 586.995 175.696 588.083C177.616 589.171 179.088 590.675 180.112 592.595C181.168 594.483 181.696 596.627 181.696 599.027ZM177.184 598.115C177.184 596.451 176.816 595.027 176.08 593.843C175.344 592.627 174.336 591.715 173.056 591.107C171.808 590.467 170.416 590.147 168.88 590.147C166.672 590.147 164.784 590.851 163.216 592.259C161.68 593.667 160.8 595.619 160.576 598.115H177.184ZM197.878 586.403C201.078 586.403 203.67 587.379 205.654 589.331C207.638 591.251 208.63 594.035 208.63 597.683V613.188H204.31V598.307C204.31 595.683 203.654 593.683 202.342 592.307C201.03 590.899 199.238 590.195 196.966 590.195C194.662 590.195 192.822 590.915 191.446 592.355C190.102 593.795 189.43 595.891 189.43 598.643V613.188H185.062V586.883H189.43V590.627C190.294 589.283 191.462 588.243 192.934 587.507C194.438 586.771 196.086 586.403 197.878 586.403ZM237.365 599.027C237.365 599.859 237.317 600.739 237.221 601.667H216.197C216.357 604.259 217.237 606.291 218.837 607.763C220.469 609.203 222.437 609.923 224.741 609.923C226.629 609.923 228.197 609.491 229.445 608.627C230.725 607.731 231.621 606.547 232.133 605.075H236.837C236.133 607.603 234.725 609.667 232.613 611.267C230.501 612.835 227.877 613.62 224.741 613.62C222.245 613.62 220.005 613.06 218.021 611.939C216.069 610.819 214.533 609.235 213.413 607.188C212.293 605.107 211.733 602.707 211.733 599.987C211.733 597.267 212.277 594.883 213.365 592.835C214.453 590.787 215.973 589.219 217.925 588.131C219.909 587.011 222.181 586.451 224.741 586.451C227.237 586.451 229.445 586.995 231.365 588.083C233.285 589.171 234.757 590.675 235.781 592.595C236.837 594.483 237.365 596.627 237.365 599.027ZM232.853 598.115C232.853 596.451 232.485 595.027 231.749 593.843C231.013 592.627 230.005 591.715 228.725 591.107C227.477 590.467 226.085 590.147 224.549 590.147C222.341 590.147 220.453 590.851 218.885 592.259C217.349 593.667 216.469 595.619 216.245 598.115H232.853ZM245.098 591.155C245.866 589.651 246.954 588.483 248.362 587.651C249.802 586.819 251.546 586.403 253.594 586.403V590.915H252.442C247.546 590.915 245.098 593.571 245.098 598.883V613.188H240.73V586.883H245.098V591.155ZM267.085 586.451C269.357 586.451 271.341 586.947 273.037 587.939C274.765 588.931 276.045 590.179 276.877 591.683V586.883H281.293V613.764C281.293 616.164 280.781 618.292 279.757 620.148C278.733 622.036 277.261 623.508 275.341 624.564C273.453 625.62 271.245 626.148 268.717 626.148C265.261 626.148 262.381 625.332 260.077 623.7C257.773 622.068 256.413 619.844 255.997 617.028H260.317C260.797 618.628 261.789 619.908 263.293 620.868C264.797 621.86 266.605 622.356 268.717 622.356C271.117 622.356 273.069 621.604 274.573 620.1C276.109 618.596 276.877 616.484 276.877 613.764V608.243C276.013 609.779 274.733 611.059 273.037 612.083C271.341 613.107 269.357 613.62 267.085 613.62C264.749 613.62 262.621 613.044 260.701 611.891C258.813 610.739 257.325 609.123 256.237 607.043C255.149 604.963 254.605 602.595 254.605 599.939C254.605 597.251 255.149 594.899 256.237 592.883C257.325 590.835 258.813 589.251 260.701 588.131C262.621 587.011 264.749 586.451 267.085 586.451ZM276.877 599.987C276.877 598.003 276.477 596.275 275.677 594.803C274.877 593.331 273.789 592.211 272.413 591.443C271.069 590.643 269.581 590.243 267.949 590.243C266.317 590.243 264.829 590.627 263.485 591.395C262.141 592.163 261.069 593.283 260.269 594.755C259.469 596.227 259.069 597.955 259.069 599.939C259.069 601.955 259.469 603.715 260.269 605.219C261.069 606.691 262.141 607.827 263.485 608.627C264.829 609.395 266.317 609.779 267.949 609.779C269.581 609.779 271.069 609.395 272.413 608.627C273.789 607.827 274.877 606.691 275.677 605.219C276.477 603.715 276.877 601.971 276.877 599.987ZM288.53 582.611C287.698 582.611 286.994 582.323 286.418 581.747C285.842 581.171 285.554 580.467 285.554 579.635C285.554 578.803 285.842 578.099 286.418 577.523C286.994 576.947 287.698 576.659 288.53 576.659C289.33 576.659 290.002 576.947 290.546 577.523C291.122 578.099 291.41 578.803 291.41 579.635C291.41 580.467 291.122 581.171 290.546 581.747C290.002 582.323 289.33 582.611 288.53 582.611ZM290.642 586.883V613.188H286.274V586.883H290.642ZM294.055 599.939C294.055 597.251 294.599 594.899 295.687 592.883C296.775 590.835 298.263 589.251 300.151 588.131C302.071 587.011 304.199 586.451 306.535 586.451C308.839 586.451 310.839 586.947 312.535 587.939C314.231 588.931 315.495 590.179 316.327 591.683V586.883H320.743V613.188H316.327V608.291C315.463 609.827 314.167 611.107 312.439 612.131C310.743 613.123 308.759 613.62 306.487 613.62C304.151 613.62 302.039 613.044 300.151 611.891C298.263 610.739 296.775 609.123 295.687 607.043C294.599 604.963 294.055 602.595 294.055 599.939ZM316.327 599.987C316.327 598.003 315.927 596.275 315.127 594.803C314.327 593.331 313.239 592.211 311.863 591.443C310.519 590.643 309.031 590.243 307.399 590.243C305.767 590.243 304.279 590.627 302.935 591.395C301.591 592.163 300.519 593.283 299.719 594.755C298.919 596.227 298.519 597.955 298.519 599.939C298.519 601.955 298.919 603.715 299.719 605.219C300.519 606.691 301.591 607.827 302.935 608.627C304.279 609.395 305.767 609.779 307.399 609.779C309.031 609.779 310.519 609.395 311.863 608.627C313.239 607.827 314.327 606.691 315.127 605.219C315.927 603.715 316.327 601.971 316.327 599.987ZM345.433 613.62C343.417 613.62 341.609 613.284 340.009 612.611C338.409 611.907 337.145 610.947 336.217 609.731C335.289 608.483 334.777 607.059 334.681 605.459H339.193C339.321 606.771 339.929 607.843 341.017 608.675C342.137 609.507 343.593 609.923 345.385 609.923C347.049 609.923 348.361 609.555 349.321 608.819C350.281 608.083 350.761 607.155 350.761 606.035C350.761 604.883 350.249 604.035 349.225 603.491C348.201 602.915 346.617 602.355 344.473 601.811C342.521 601.299 340.921 600.787 339.673 600.275C338.457 599.731 337.401 598.947 336.505 597.923C335.641 596.867 335.209 595.491 335.209 593.795C335.209 592.451 335.609 591.219 336.409 590.099C337.209 588.979 338.345 588.099 339.817 587.459C341.289 586.787 342.969 586.451 344.857 586.451C347.769 586.451 350.121 587.187 351.913 588.659C353.705 590.131 354.665 592.147 354.793 594.707H350.425C350.329 593.331 349.769 592.227 348.745 591.395C347.753 590.563 346.409 590.147 344.713 590.147C343.145 590.147 341.897 590.483 340.969 591.155C340.041 591.827 339.577 592.707 339.577 593.795C339.577 594.659 339.849 595.379 340.393 595.955C340.969 596.499 341.673 596.947 342.505 597.299C343.369 597.619 344.553 597.987 346.057 598.403C347.945 598.915 349.481 599.427 350.665 599.939C351.849 600.419 352.857 601.155 353.689 602.147C354.553 603.139 355.001 604.435 355.033 606.035C355.033 607.475 354.633 608.771 353.833 609.923C353.033 611.075 351.897 611.987 350.425 612.659C348.985 613.3 347.321 613.62 345.433 613.62ZM370.271 613.62C367.807 613.62 365.567 613.06 363.551 611.939C361.567 610.819 359.999 609.235 358.847 607.188C357.727 605.107 357.167 602.707 357.167 599.987C357.167 597.299 357.743 594.931 358.895 592.883C360.079 590.803 361.679 589.219 363.695 588.131C365.711 587.011 367.967 586.451 370.463 586.451C372.959 586.451 375.215 587.011 377.231 588.131C379.247 589.219 380.831 590.787 381.983 592.835C383.167 594.883 383.759 597.267 383.759 599.987C383.759 602.707 383.151 605.107 381.935 607.188C380.751 609.235 379.135 610.819 377.087 611.939C375.039 613.06 372.767 613.62 370.271 613.62ZM370.271 609.779C371.839 609.779 373.311 609.411 374.687 608.675C376.063 607.939 377.167 606.835 377.999 605.363C378.863 603.891 379.295 602.099 379.295 599.987C379.295 597.875 378.879 596.083 378.047 594.611C377.215 593.139 376.127 592.051 374.783 591.347C373.439 590.611 371.983 590.243 370.415 590.243C368.815 590.243 367.343 590.611 365.999 591.347C364.687 592.051 363.631 593.139 362.831 594.611C362.031 596.083 361.631 597.875 361.631 599.987C361.631 602.131 362.015 603.939 362.783 605.411C363.583 606.883 364.639 607.987 365.951 608.723C367.263 609.427 368.703 609.779 370.271 609.779ZM391.47 577.667V613.188H387.102V577.667H391.47ZM394.883 599.939C394.883 597.251 395.427 594.899 396.515 592.883C397.603 590.835 399.091 589.251 400.979 588.131C402.899 587.011 405.027 586.451 407.363 586.451C409.667 586.451 411.667 586.947 413.363 587.939C415.059 588.931 416.323 590.179 417.155 591.683V586.883H421.571V613.188H417.155V608.291C416.291 609.827 414.995 611.107 413.267 612.131C411.571 613.123 409.587 613.62 407.315 613.62C404.979 613.62 402.867 613.044 400.979 611.891C399.091 610.739 397.603 609.123 396.515 607.043C395.427 604.963 394.883 602.595 394.883 599.939ZM417.155 599.987C417.155 598.003 416.755 596.275 415.955 594.803C415.155 593.331 414.067 592.211 412.691 591.443C411.347 590.643 409.859 590.243 408.227 590.243C406.595 590.243 405.107 590.627 403.763 591.395C402.419 592.163 401.347 593.283 400.547 594.755C399.747 596.227 399.347 597.955 399.347 599.939C399.347 601.955 399.747 603.715 400.547 605.219C401.347 606.691 402.419 607.827 403.763 608.627C405.107 609.395 406.595 609.779 408.227 609.779C409.859 609.779 411.347 609.395 412.691 608.627C414.067 607.827 415.155 606.691 415.955 605.219C416.755 603.715 417.155 601.971 417.155 599.987ZM430.92 591.155C431.688 589.651 432.776 588.483 434.184 587.651C435.624 586.819 437.368 586.403 439.416 586.403V590.915H438.264C433.368 590.915 430.92 593.571 430.92 598.883V613.188H426.552V586.883H430.92V591.155ZM476.455 599.027C476.455 599.859 476.407 600.739 476.311 601.667H455.287C455.447 604.259 456.327 606.291 457.927 607.763C459.559 609.203 461.527 609.923 463.831 609.923C465.719 609.923 467.287 609.491 468.535 608.627C469.815 607.731 470.711 606.547 471.223 605.075H475.927C475.223 607.603 473.815 609.667 471.703 611.267C469.591 612.835 466.967 613.62 463.831 613.62C461.335 613.62 459.095 613.06 457.111 611.939C455.159 610.819 453.623 609.235 452.503 607.188C451.383 605.107 450.823 602.707 450.823 599.987C450.823 597.267 451.367 594.883 452.455 592.835C453.543 590.787 455.063 589.219 457.015 588.131C458.999 587.011 461.271 586.451 463.831 586.451C466.327 586.451 468.535 586.995 470.455 588.083C472.375 589.171 473.847 590.675 474.871 592.595C475.927 594.483 476.455 596.627 476.455 599.027ZM471.943 598.115C471.943 596.451 471.575 595.027 470.839 593.843C470.103 592.627 469.095 591.715 467.815 591.107C466.567 590.467 465.175 590.147 463.639 590.147C461.431 590.147 459.543 590.851 457.975 592.259C456.439 593.667 455.559 595.619 455.335 598.115H471.943ZM499.53 613.62C497.514 613.62 495.706 613.284 494.106 612.611C492.506 611.907 491.242 610.947 490.314 609.731C489.386 608.483 488.874 607.059 488.778 605.459H493.29C493.418 606.771 494.026 607.843 495.114 608.675C496.234 609.507 497.69 609.923 499.482 609.923C501.146 609.923 502.458 609.555 503.418 608.819C504.378 608.083 504.858 607.155 504.858 606.035C504.858 604.883 504.346 604.035 503.322 603.491C502.298 602.915 500.714 602.355 498.57 601.811C496.618 601.299 495.018 600.787 493.77 600.275C492.554 599.731 491.498 598.947 490.602 597.923C489.738 596.867 489.306 595.491 489.306 593.795C489.306 592.451 489.706 591.219 490.506 590.099C491.306 588.979 492.442 588.099 493.914 587.459C495.386 586.787 497.066 586.451 498.954 586.451C501.866 586.451 504.218 587.187 506.01 588.659C507.802 590.131 508.762 592.147 508.89 594.707H504.522C504.426 593.331 503.866 592.227 502.842 591.395C501.85 590.563 500.506 590.147 498.81 590.147C497.242 590.147 495.994 590.483 495.066 591.155C494.138 591.827 493.674 592.707 493.674 593.795C493.674 594.659 493.946 595.379 494.49 595.955C495.066 596.499 495.77 596.947 496.602 597.299C497.466 597.619 498.65 597.987 500.154 598.403C502.042 598.915 503.578 599.427 504.762 599.939C505.946 600.419 506.954 601.155 507.786 602.147C508.65 603.139 509.098 604.435 509.13 606.035C509.13 607.475 508.73 608.771 507.93 609.923C507.13 611.075 505.994 611.987 504.522 612.659C503.082 613.3 501.418 613.62 499.53 613.62ZM524.368 613.62C521.904 613.62 519.664 613.06 517.648 611.939C515.664 610.819 514.096 609.235 512.944 607.188C511.824 605.107 511.264 602.707 511.264 599.987C511.264 597.299 511.84 594.931 512.992 592.883C514.176 590.803 515.776 589.219 517.792 588.131C519.808 587.011 522.064 586.451 524.56 586.451C527.056 586.451 529.312 587.011 531.328 588.131C533.344 589.219 534.928 590.787 536.08 592.835C537.264 594.883 537.856 597.267 537.856 599.987C537.856 602.707 537.248 605.107 536.032 607.188C534.848 609.235 533.232 610.819 531.184 611.939C529.136 613.06 526.864 613.62 524.368 613.62ZM524.368 609.779C525.936 609.779 527.408 609.411 528.784 608.675C530.16 607.939 531.264 606.835 532.096 605.363C532.96 603.891 533.392 602.099 533.392 599.987C533.392 597.875 532.976 596.083 532.144 594.611C531.312 593.139 530.224 592.051 528.88 591.347C527.536 590.611 526.08 590.243 524.512 590.243C522.912 590.243 521.44 590.611 520.096 591.347C518.784 592.051 517.728 593.139 516.928 594.611C516.128 596.083 515.728 597.875 515.728 599.987C515.728 602.131 516.112 603.939 516.88 605.411C517.68 606.883 518.736 607.987 520.048 608.723C521.36 609.427 522.8 609.779 524.368 609.779ZM545.567 577.667V613.188H541.199V577.667H545.567ZM573.94 586.883V613.188H569.572V609.299C568.74 610.643 567.572 611.699 566.068 612.467C564.596 613.204 562.964 613.572 561.172 613.572C559.124 613.572 557.284 613.155 555.652 612.323C554.02 611.459 552.724 610.179 551.764 608.483C550.836 606.787 550.372 604.723 550.372 602.291V586.883H554.692V601.715C554.692 604.307 555.348 606.307 556.66 607.715C557.972 609.091 559.764 609.779 562.036 609.779C564.372 609.779 566.212 609.059 567.556 607.619C568.9 606.179 569.572 604.083 569.572 601.331V586.883H573.94ZM590.099 609.923C592.019 609.923 593.619 609.475 594.899 608.579C596.179 607.683 597.059 606.403 597.539 604.739H602.243C601.603 607.235 600.339 609.283 598.451 610.883C596.595 612.451 594.259 613.348 591.443 613.572V615.972C593.331 615.94 594.835 616.34 595.955 617.172C597.075 618.004 597.635 619.188 597.635 620.724C597.635 622.228 597.091 623.428 596.003 624.324C594.915 625.22 593.507 625.668 591.779 625.668H586.259V622.836H590.915C591.971 622.836 592.739 622.676 593.219 622.356C593.731 622.036 593.987 621.492 593.987 620.724C593.987 619.988 593.731 619.46 593.219 619.14C592.739 618.82 591.971 618.66 590.915 618.66H588.515V613.524C586.307 613.3 584.355 612.611 582.659 611.459C580.963 610.275 579.635 608.707 578.675 606.755C577.747 604.771 577.283 602.515 577.283 599.987C577.283 597.267 577.827 594.899 578.915 592.883C580.003 590.835 581.507 589.251 583.427 588.131C585.379 587.011 587.603 586.451 590.099 586.451C593.331 586.451 595.987 587.235 598.067 588.803C600.179 590.371 601.571 592.547 602.243 595.331H597.539C597.091 593.731 596.211 592.467 594.899 591.539C593.619 590.611 592.019 590.147 590.099 590.147C587.603 590.147 585.587 591.011 584.051 592.739C582.515 594.435 581.747 596.851 581.747 599.987C581.747 603.155 582.515 605.603 584.051 607.331C585.587 609.059 587.603 609.923 590.099 609.923ZM617.143 613.62C614.679 613.62 612.439 613.06 610.423 611.939C608.439 610.819 606.871 609.235 605.719 607.188C604.599 605.107 604.039 602.707 604.039 599.987C604.039 597.299 604.615 594.931 605.767 592.883C606.951 590.803 608.551 589.219 610.567 588.131C612.583 587.011 614.839 586.451 617.335 586.451C619.831 586.451 622.087 587.011 624.103 588.131C626.119 589.219 627.703 590.787 628.855 592.835C630.039 594.883 630.631 597.267 630.631 599.987C630.631 602.707 630.023 605.107 628.807 607.188C627.623 609.235 626.007 610.819 623.959 611.939C621.911 613.06 619.639 613.62 617.143 613.62ZM617.143 609.779C618.711 609.779 620.183 609.411 621.559 608.675C622.935 607.939 624.039 606.835 624.871 605.363C625.735 603.891 626.167 602.099 626.167 599.987C626.167 597.875 625.751 596.083 624.919 594.611C624.087 593.139 622.999 592.051 621.655 591.347C620.311 590.611 618.855 590.243 617.287 590.243C615.687 590.243 614.215 590.611 612.871 591.347C611.559 592.051 610.503 593.139 609.703 594.611C608.903 596.083 608.503 597.875 608.503 599.987C608.503 602.131 608.887 603.939 609.655 605.411C610.455 606.883 611.511 607.987 612.823 608.723C614.135 609.427 615.575 609.779 617.143 609.779ZM610.327 583.715C610.551 582.083 611.079 580.835 611.911 579.971C612.775 579.107 613.847 578.675 615.127 578.675C615.735 578.675 616.247 578.787 616.663 579.011C617.111 579.203 617.639 579.491 618.247 579.875C618.695 580.195 619.095 580.451 619.447 580.643C619.799 580.803 620.183 580.883 620.599 580.883C621.143 580.883 621.607 580.707 621.991 580.355C622.375 580.003 622.615 579.491 622.711 578.819H625.207C625.015 580.419 624.487 581.651 623.623 582.515C622.759 583.379 621.687 583.811 620.407 583.811C619.799 583.811 619.255 583.715 618.775 583.523C618.327 583.299 617.815 582.979 617.239 582.563C616.727 582.243 616.311 582.003 615.991 581.843C615.703 581.683 615.351 581.603 614.935 581.603C614.391 581.603 613.927 581.779 613.543 582.131C613.191 582.483 612.967 583.011 612.871 583.715H610.327ZM657.974 599.027C657.974 599.859 657.926 600.739 657.83 601.667H636.806C636.966 604.259 637.846 606.291 639.446 607.763C641.078 609.203 643.046 609.923 645.35 609.923C647.238 609.923 648.806 609.491 650.054 608.627C651.334 607.731 652.23 606.547 652.742 605.075H657.446C656.742 607.603 655.334 609.667 653.222 611.267C651.11 612.835 648.486 613.62 645.35 613.62C642.854 613.62 640.614 613.06 638.63 611.939C636.678 610.819 635.142 609.235 634.022 607.188C632.902 605.107 632.342 602.707 632.342 599.987C632.342 597.267 632.886 594.883 633.974 592.835C635.062 590.787 636.582 589.219 638.534 588.131C640.518 587.011 642.79 586.451 645.35 586.451C647.846 586.451 650.054 586.995 651.974 588.083C653.894 589.171 655.366 590.675 656.39 592.595C657.446 594.483 657.974 596.627 657.974 599.027ZM653.462 598.115C653.462 596.451 653.094 595.027 652.358 593.843C651.622 592.627 650.614 591.715 649.334 591.107C648.086 590.467 646.694 590.147 645.158 590.147C642.95 590.147 641.062 590.851 639.494 592.259C637.958 593.667 637.078 595.619 636.854 598.115H653.462ZM670.652 613.62C668.636 613.62 666.828 613.284 665.228 612.611C663.628 611.907 662.364 610.947 661.436 609.731C660.508 608.483 659.996 607.059 659.9 605.459H664.412C664.54 606.771 665.148 607.843 666.236 608.675C667.356 609.507 668.812 609.923 670.604 609.923C672.268 609.923 673.58 609.555 674.54 608.819C675.5 608.083 675.98 607.155 675.98 606.035C675.98 604.883 675.468 604.035 674.444 603.491C673.42 602.915 671.836 602.355 669.692 601.811C667.74 601.299 666.14 600.787 664.892 600.275C663.676 599.731 662.62 598.947 661.724 597.923C660.86 596.867 660.428 595.491 660.428 593.795C660.428 592.451 660.828 591.219 661.628 590.099C662.428 588.979 663.564 588.099 665.036 587.459C666.508 586.787 668.188 586.451 670.076 586.451C672.988 586.451 675.34 587.187 677.132 588.659C678.924 590.131 679.884 592.147 680.012 594.707H675.644C675.548 593.331 674.988 592.227 673.964 591.395C672.972 590.563 671.628 590.147 669.932 590.147C668.364 590.147 667.116 590.483 666.188 591.155C665.26 591.827 664.796 592.707 664.796 593.795C664.796 594.659 665.068 595.379 665.612 595.955C666.188 596.499 666.892 596.947 667.724 597.299C668.588 597.619 669.772 597.987 671.276 598.403C673.164 598.915 674.7 599.427 675.884 599.939C677.068 600.419 678.076 601.155 678.908 602.147C679.772 603.139 680.22 604.435 680.252 606.035C680.252 607.475 679.852 608.771 679.052 609.923C678.252 611.075 677.116 611.987 675.644 612.659C674.204 613.3 672.54 613.62 670.652 613.62ZM703.727 613.62C701.711 613.62 699.903 613.284 698.303 612.611C696.703 611.907 695.439 610.947 694.511 609.731C693.583 608.483 693.071 607.059 692.975 605.459H697.487C697.615 606.771 698.223 607.843 699.311 608.675C700.431 609.507 701.887 609.923 703.679 609.923C705.343 609.923 706.655 609.555 707.615 608.819C708.575 608.083 709.055 607.155 709.055 606.035C709.055 604.883 708.543 604.035 707.519 603.491C706.495 602.915 704.911 602.355 702.767 601.811C700.815 601.299 699.215 600.787 697.967 600.275C696.751 599.731 695.695 598.947 694.799 597.923C693.935 596.867 693.503 595.491 693.503 593.795C693.503 592.451 693.903 591.219 694.703 590.099C695.503 588.979 696.639 588.099 698.111 587.459C699.583 586.787 701.263 586.451 703.151 586.451C706.063 586.451 708.415 587.187 710.207 588.659C711.999 590.131 712.959 592.147 713.087 594.707H708.719C708.623 593.331 708.063 592.227 707.039 591.395C706.047 590.563 704.703 590.147 703.007 590.147C701.439 590.147 700.191 590.483 699.263 591.155C698.335 591.827 697.871 592.707 697.871 593.795C697.871 594.659 698.143 595.379 698.687 595.955C699.263 596.499 699.967 596.947 700.799 597.299C701.663 597.619 702.847 597.987 704.351 598.403C706.239 598.915 707.775 599.427 708.959 599.939C710.143 600.419 711.151 601.155 711.983 602.147C712.847 603.139 713.295 604.435 713.327 606.035C713.327 607.475 712.927 608.771 712.127 609.923C711.327 611.075 710.191 611.987 708.719 612.659C707.279 613.3 705.615 613.62 703.727 613.62ZM740.421 586.883V613.188H736.053V609.299C735.221 610.643 734.053 611.699 732.549 612.467C731.077 613.204 729.445 613.572 727.653 613.572C725.605 613.572 723.765 613.155 722.133 612.323C720.501 611.459 719.205 610.179 718.245 608.483C717.317 606.787 716.853 604.723 716.853 602.291V586.883H721.173V601.715C721.173 604.307 721.829 606.307 723.141 607.715C724.453 609.091 726.245 609.779 728.517 609.779C730.853 609.779 732.693 609.059 734.037 607.619C735.381 606.179 736.053 604.083 736.053 601.331V586.883H740.421ZM754.708 613.62C752.692 613.62 750.884 613.284 749.284 612.611C747.684 611.907 746.42 610.947 745.492 609.731C744.564 608.483 744.052 607.059 743.956 605.459H748.468C748.596 606.771 749.204 607.843 750.292 608.675C751.412 609.507 752.868 609.923 754.66 609.923C756.324 609.923 757.636 609.555 758.596 608.819C759.556 608.083 760.036 607.155 760.036 606.035C760.036 604.883 759.524 604.035 758.5 603.491C757.476 602.915 755.892 602.355 753.748 601.811C751.796 601.299 750.196 600.787 748.948 600.275C747.732 599.731 746.676 598.947 745.78 597.923C744.916 596.867 744.484 595.491 744.484 593.795C744.484 592.451 744.884 591.219 745.684 590.099C746.484 588.979 747.62 588.099 749.092 587.459C750.564 586.787 752.244 586.451 754.132 586.451C757.044 586.451 759.396 587.187 761.188 588.659C762.98 590.131 763.94 592.147 764.068 594.707H759.7C759.604 593.331 759.044 592.227 758.02 591.395C757.028 590.563 755.684 590.147 753.988 590.147C752.42 590.147 751.172 590.483 750.244 591.155C749.316 591.827 748.852 592.707 748.852 593.795C748.852 594.659 749.124 595.379 749.668 595.955C750.244 596.499 750.948 596.947 751.78 597.299C752.644 597.619 753.828 597.987 755.332 598.403C757.22 598.915 758.756 599.427 759.94 599.939C761.124 600.419 762.132 601.155 762.964 602.147C763.828 603.139 764.276 604.435 764.308 606.035C764.308 607.475 763.908 608.771 763.108 609.923C762.308 611.075 761.172 611.987 759.7 612.659C758.26 613.3 756.596 613.62 754.708 613.62ZM773.402 590.483V605.987C773.402 607.267 773.674 608.179 774.218 608.723C774.762 609.235 775.706 609.491 777.05 609.491H780.266V613.188H776.33C773.898 613.188 772.074 612.627 770.858 611.507C769.642 610.387 769.034 608.547 769.034 605.987V590.483H765.626V586.883H769.034V580.259H773.402V586.883H780.266V590.483H773.402ZM807.159 599.027C807.159 599.859 807.111 600.739 807.015 601.667H785.991C786.151 604.259 787.031 606.291 788.631 607.763C790.263 609.203 792.231 609.923 794.535 609.923C796.423 609.923 797.991 609.491 799.239 608.627C800.519 607.731 801.415 606.547 801.927 605.075H806.631C805.927 607.603 804.519 609.667 802.407 611.267C800.295 612.835 797.671 613.62 794.535 613.62C792.039 613.62 789.799 613.06 787.815 611.939C785.863 610.819 784.327 609.235 783.207 607.188C782.087 605.107 781.527 602.707 781.527 599.987C781.527 597.267 782.071 594.883 783.159 592.835C784.247 590.787 785.767 589.219 787.719 588.131C789.703 587.011 791.975 586.451 794.535 586.451C797.031 586.451 799.239 586.995 801.159 588.083C803.079 589.171 804.551 590.675 805.575 592.595C806.631 594.483 807.159 596.627 807.159 599.027ZM802.647 598.115C802.647 596.451 802.279 595.027 801.543 593.843C800.807 592.627 799.799 591.715 798.519 591.107C797.271 590.467 795.879 590.147 794.343 590.147C792.135 590.147 790.247 590.851 788.679 592.259C787.143 593.667 786.263 595.619 786.039 598.115H802.647ZM823.34 586.403C826.54 586.403 829.132 587.379 831.116 589.331C833.1 591.251 834.092 594.035 834.092 597.683V613.188H829.772V598.307C829.772 595.683 829.116 593.683 827.804 592.307C826.492 590.899 824.7 590.195 822.428 590.195C820.124 590.195 818.284 590.915 816.908 592.355C815.564 593.795 814.892 595.891 814.892 598.643V613.188H810.524V586.883H814.892V590.627C815.756 589.283 816.924 588.243 818.396 587.507C819.9 586.771 821.548 586.403 823.34 586.403ZM844.155 590.483V605.987C844.155 607.267 844.427 608.179 844.971 608.723C845.515 609.235 846.459 609.491 847.803 609.491H851.019V613.188H847.083C844.651 613.188 842.827 612.627 841.611 611.507C840.395 610.387 839.787 608.547 839.787 605.987V590.483H836.379V586.883H839.787V580.259H844.155V586.883H851.019V590.483H844.155ZM852.28 599.939C852.28 597.251 852.824 594.899 853.912 592.883C855 590.835 856.488 589.251 858.376 588.131C860.296 587.011 862.424 586.451 864.76 586.451C867.064 586.451 869.064 586.947 870.76 587.939C872.456 588.931 873.72 590.179 874.552 591.683V586.883H878.968V613.188H874.552V608.291C873.688 609.827 872.392 611.107 870.664 612.131C868.968 613.123 866.984 613.62 864.712 613.62C862.376 613.62 860.264 613.044 858.376 611.891C856.488 610.739 855 609.123 853.912 607.043C852.824 604.963 852.28 602.595 852.28 599.939ZM874.552 599.987C874.552 598.003 874.152 596.275 873.352 594.803C872.552 593.331 871.464 592.211 870.088 591.443C868.744 590.643 867.256 590.243 865.624 590.243C863.992 590.243 862.504 590.627 861.16 591.395C859.816 592.163 858.744 593.283 857.944 594.755C857.144 596.227 856.744 597.955 856.744 599.939C856.744 601.955 857.144 603.715 857.944 605.219C858.744 606.691 859.816 607.827 861.16 608.627C862.504 609.395 863.992 609.779 865.624 609.779C867.256 609.779 868.744 609.395 870.088 608.627C871.464 607.827 872.552 606.691 873.352 605.219C874.152 603.715 874.552 601.971 874.552 599.987ZM871.144 579.443L860.92 584.915V581.651L871.144 575.651V579.443ZM893.741 609.155L901.901 586.883H906.557L896.237 613.188H891.149L880.829 586.883H885.533L893.741 609.155ZM932.455 599.027C932.455 599.859 932.407 600.739 932.311 601.667H911.287C911.447 604.259 912.327 606.291 913.927 607.763C915.559 609.203 917.527 609.923 919.831 609.923C921.719 609.923 923.287 609.491 924.535 608.627C925.815 607.731 926.711 606.547 927.223 605.075H931.927C931.223 607.603 929.815 609.667 927.703 611.267C925.591 612.835 922.967 613.62 919.831 613.62C917.335 613.62 915.095 613.06 913.111 611.939C911.159 610.819 909.623 609.235 908.503 607.188C907.383 605.107 906.823 602.707 906.823 599.987C906.823 597.267 907.367 594.883 908.455 592.835C909.543 590.787 911.063 589.219 913.015 588.131C914.999 587.011 917.271 586.451 919.831 586.451C922.327 586.451 924.535 586.995 926.455 588.083C928.375 589.171 929.847 590.675 930.871 592.595C931.927 594.483 932.455 596.627 932.455 599.027ZM927.943 598.115C927.943 596.451 927.575 595.027 926.839 593.843C926.103 592.627 925.095 591.715 923.815 591.107C922.567 590.467 921.175 590.147 919.639 590.147C917.431 590.147 915.543 590.851 913.975 592.259C912.439 593.667 911.559 595.619 911.335 598.115H927.943ZM938.077 582.611C937.245 582.611 936.541 582.323 935.965 581.747C935.389 581.171 935.101 580.467 935.101 579.635C935.101 578.803 935.389 578.099 935.965 577.523C936.541 576.947 937.245 576.659 938.077 576.659C938.877 576.659 939.549 576.947 940.093 577.523C940.669 578.099 940.957 578.803 940.957 579.635C940.957 580.467 940.669 581.171 940.093 581.747C939.549 582.323 938.877 582.611 938.077 582.611ZM940.189 586.883V613.188H935.821V586.883H940.189ZM954.545 613.62C952.529 613.62 950.721 613.284 949.121 612.611C947.521 611.907 946.257 610.947 945.329 609.731C944.401 608.483 943.889 607.059 943.793 605.459H948.305C948.433 606.771 949.041 607.843 950.129 608.675C951.249 609.507 952.705 609.923 954.497 609.923C956.161 609.923 957.473 609.555 958.433 608.819C959.393 608.083 959.873 607.155 959.873 606.035C959.873 604.883 959.361 604.035 958.337 603.491C957.313 602.915 955.729 602.355 953.585 601.811C951.633 601.299 950.033 600.787 948.785 600.275C947.569 599.731 946.513 598.947 945.617 597.923C944.753 596.867 944.321 595.491 944.321 593.795C944.321 592.451 944.721 591.219 945.521 590.099C946.321 588.979 947.457 588.099 948.929 587.459C950.401 586.787 952.081 586.451 953.969 586.451C956.881 586.451 959.233 587.187 961.025 588.659C962.817 590.131 963.777 592.147 963.905 594.707H959.537C959.441 593.331 958.881 592.227 957.857 591.395C956.865 590.563 955.521 590.147 953.825 590.147C952.257 590.147 951.009 590.483 950.081 591.155C949.153 591.827 948.689 592.707 948.689 593.795C948.689 594.659 948.961 595.379 949.505 595.955C950.081 596.499 950.785 596.947 951.617 597.299C952.481 597.619 953.665 597.987 955.169 598.403C957.057 598.915 958.593 599.427 959.777 599.939C960.961 600.419 961.969 601.155 962.801 602.147C963.665 603.139 964.113 604.435 964.145 606.035C964.145 607.475 963.745 608.771 962.945 609.923C962.145 611.075 961.009 611.987 959.537 612.659C958.097 613.3 956.433 613.62 954.545 613.62Z" fill="black"/>
</svg>
