<svg width="32" height="32" viewBox="0 0 32 32" fill="none" xmlns="http://www.w3.org/2000/svg">
<path d="M0 0H32V32H0V0Z" fill="black"/>
<path fill-rule="evenodd" clip-rule="evenodd" d="M5.38552 31.5229C6.24885 31.841 7.14626 32 8.07774 32C9.46361 32 10.6791 31.6819 11.7242 31.0458C12.7693 30.4097 13.5871 29.5236 14.1778 28.3876C14.6044 27.5978 14.8826 26.7255 15.0126 25.7708C16.2495 26.2918 17.6201 26.5815 19.0625 26.5815C24.552 26.5815 29.0021 22.3856 29.0021 17.2098C29.0021 12.034 24.552 7.83813 19.0625 7.83813C17.6532 7.83813 16.3125 8.11464 15.098 8.61326V6.95208H8.623V24.9798C8.623 25.2751 8.56621 25.5364 8.45261 25.7636C8.33901 25.9908 8.17998 26.1612 7.97551 26.2748C7.79375 26.3884 7.5552 26.4452 7.25985 26.4452C6.9645 26.4452 6.66915 26.377 6.3738 26.2407C6.07845 26.1271 5.8399 25.9681 5.65815 25.7636L3 30.1597C3.7043 30.7504 4.49947 31.2048 5.38552 31.5229ZM15.098 8.61326C11.5814 10.057 9.12283 13.3627 9.12283 17.2098C9.12283 21.0257 11.5417 24.3089 15.0126 25.7708C15.0695 25.3526 15.098 24.9185 15.098 24.4686V8.61326ZM8.623 0V5.45261H15.098V0H8.623Z" fill="white"/>
</svg>
