<svg width="1123" height="1123" viewBox="0 0 1123 1123" fill="none" xmlns="http://www.w3.org/2000/svg">
<rect width="1123" height="1123" fill="white"/>
<path d="M249 612L221.56 537.24H238.08L261.6 603.18H253.76L278.4 537.24H293.1L317.04 603.18H309.34L333.56 537.24H349.1L321.52 612H304.72L282.88 553.62H288.06L265.8 612H249Z" fill="black"/>
<path d="M385.682 612.98C378.028 612.98 371.215 611.347 365.242 608.08C359.268 604.72 354.555 600.147 351.102 594.36C347.648 588.573 345.922 581.993 345.922 574.62C345.922 567.153 347.648 560.573 351.102 554.88C354.555 549.093 359.268 544.567 365.242 541.3C371.215 538.033 378.028 536.4 385.682 536.4C393.428 536.4 400.288 538.033 406.262 541.3C412.328 544.567 417.042 549.047 420.402 554.74C423.855 560.433 425.582 567.06 425.582 574.62C425.582 581.993 423.855 588.573 420.402 594.36C417.042 600.147 412.328 604.72 406.262 608.08C400.288 611.347 393.428 612.98 385.682 612.98ZM385.682 598C389.975 598 393.802 597.067 397.162 595.2C400.522 593.333 403.135 590.627 405.002 587.08C406.962 583.533 407.942 579.38 407.942 574.62C407.942 569.767 406.962 565.613 405.002 562.16C403.135 558.613 400.522 555.907 397.162 554.04C393.802 552.173 390.022 551.24 385.822 551.24C381.528 551.24 377.702 552.173 374.342 554.04C371.075 555.907 368.462 558.613 366.502 562.16C364.542 565.613 363.562 569.767 363.562 574.62C363.562 579.38 364.542 583.533 366.502 587.08C368.462 590.627 371.075 593.333 374.342 595.2C377.702 597.067 381.482 598 385.682 598Z" fill="black"/>
<path d="M435.316 612V537.24H451.976V557.82L450.016 551.8C452.256 546.76 455.756 542.933 460.516 540.32C465.369 537.707 471.389 536.4 478.576 536.4V553.06C477.829 552.873 477.129 552.78 476.476 552.78C475.823 552.687 475.169 552.64 474.516 552.64C467.889 552.64 462.616 554.6 458.696 558.52C454.776 562.347 452.816 568.087 452.816 575.74V612H435.316Z" fill="black"/>
<path d="M500.701 595.34L501.121 573.36L540.181 537.24H561.181L528.001 570.56L518.761 578.26L500.701 595.34ZM486.421 612V508.12H503.921V612H486.421ZM542.841 612L515.541 578.26L526.601 564.26L564.121 612H542.841Z" fill="black"/>
<path d="M613.118 612V596.88L612.138 593.66V567.2C612.138 562.067 610.598 558.1 607.518 555.3C604.438 552.407 599.772 550.96 593.518 550.96C589.318 550.96 585.165 551.613 581.058 552.92C577.045 554.227 573.638 556.047 570.838 558.38L563.978 545.64C567.992 542.56 572.752 540.273 578.258 538.78C583.858 537.193 589.645 536.4 595.618 536.4C606.445 536.4 614.798 539.013 620.678 544.24C626.652 549.373 629.638 557.353 629.638 568.18V612H613.118ZM589.598 612.98C583.998 612.98 579.098 612.047 574.898 610.18C570.698 608.22 567.432 605.56 565.098 602.2C562.858 598.747 561.738 594.873 561.738 590.58C561.738 586.38 562.718 582.6 564.678 579.24C566.732 575.88 570.045 573.22 574.618 571.26C579.192 569.3 585.258 568.32 592.818 568.32H614.518V579.94H594.078C588.105 579.94 584.092 580.92 582.038 582.88C579.985 584.747 578.958 587.08 578.958 589.88C578.958 593.053 580.218 595.573 582.738 597.44C585.258 599.307 588.758 600.24 593.238 600.24C597.532 600.24 601.358 599.26 604.718 597.3C608.172 595.34 610.645 592.447 612.138 588.62L615.078 599.12C613.398 603.507 610.365 606.913 605.978 609.34C601.685 611.767 596.225 612.98 589.598 612.98Z" fill="black"/>
<path d="M687.517 536.4C693.491 536.4 698.811 537.567 703.477 539.9C708.237 542.233 711.971 545.827 714.677 550.68C717.384 555.44 718.737 561.6 718.737 569.16V612H701.237V571.4C701.237 564.773 699.651 559.827 696.477 556.56C693.397 553.293 689.057 551.66 683.457 551.66C679.351 551.66 675.711 552.5 672.537 554.18C669.364 555.86 666.891 558.38 665.117 561.74C663.437 565.007 662.597 569.16 662.597 574.2V612H645.097V537.24H661.757V557.4L658.817 551.24C661.431 546.48 665.211 542.84 670.157 540.32C675.197 537.707 680.984 536.4 687.517 536.4Z" fill="black"/>
<path d="M765.714 612.98C758.527 612.98 752.04 611.393 746.254 608.22C740.56 604.953 736.08 600.473 732.814 594.78C729.547 589.087 727.914 582.367 727.914 574.62C727.914 566.873 729.547 560.153 732.814 554.46C736.08 548.767 740.56 544.333 746.254 541.16C752.04 537.987 758.527 536.4 765.714 536.4C771.967 536.4 777.567 537.8 782.514 540.6C787.46 543.307 791.38 547.46 794.274 553.06C797.167 558.66 798.614 565.847 798.614 574.62C798.614 583.3 797.214 590.487 794.414 596.18C791.614 601.78 787.74 605.98 782.794 608.78C777.847 611.58 772.154 612.98 765.714 612.98ZM767.814 598C772.014 598 775.747 597.067 779.014 595.2C782.374 593.333 785.034 590.627 786.994 587.08C789.047 583.533 790.074 579.38 790.074 574.62C790.074 569.767 789.047 565.613 786.994 562.16C785.034 558.613 782.374 555.907 779.014 554.04C775.747 552.173 772.014 551.24 767.814 551.24C763.614 551.24 759.834 552.173 756.474 554.04C753.207 555.907 750.547 558.613 748.494 562.16C746.534 565.613 745.554 569.767 745.554 574.62C745.554 579.38 746.534 583.533 748.494 587.08C750.547 590.627 753.207 593.333 756.474 595.2C759.834 597.067 763.614 598 767.814 598ZM790.494 612V594.36L791.194 574.48L789.794 554.6V508.12H807.154V612H790.494Z" fill="black"/>
<path d="M856.787 612.98C849.134 612.98 842.32 611.347 836.347 608.08C830.374 604.72 825.66 600.147 822.207 594.36C818.754 588.573 817.027 581.993 817.027 574.62C817.027 567.153 818.754 560.573 822.207 554.88C825.66 549.093 830.374 544.567 836.347 541.3C842.32 538.033 849.134 536.4 856.787 536.4C864.534 536.4 871.394 538.033 877.367 541.3C883.434 544.567 888.147 549.047 891.507 554.74C894.96 560.433 896.687 567.06 896.687 574.62C896.687 581.993 894.96 588.573 891.507 594.36C888.147 600.147 883.434 604.72 877.367 608.08C871.394 611.347 864.534 612.98 856.787 612.98ZM856.787 598C861.08 598 864.907 597.067 868.267 595.2C871.627 593.333 874.24 590.627 876.107 587.08C878.067 583.533 879.047 579.38 879.047 574.62C879.047 569.767 878.067 565.613 876.107 562.16C874.24 558.613 871.627 555.907 868.267 554.04C864.907 552.173 861.127 551.24 856.927 551.24C852.634 551.24 848.807 552.173 845.447 554.04C842.18 555.907 839.567 558.613 837.607 562.16C835.647 565.613 834.667 569.767 834.667 574.62C834.667 579.38 835.647 583.533 837.607 587.08C839.567 590.627 842.18 593.333 845.447 595.2C848.807 597.067 852.587 598 856.787 598Z" fill="black"/>
</svg>
