<svg width="125" height="164" viewBox="0 0 125 164" fill="none" xmlns="http://www.w3.org/2000/svg">
<mask id="path-1-outside-1_304_311" maskUnits="userSpaceOnUse" x="0" y="0" width="125" height="164" fill="#020200">
<rect fill="#fff" width="125" height="164"/>
<path d="M78.6059 52.0428C75.5036 52.0428 72.4463 51.5649 69.4339 50.6092C66.4665 49.6101 63.9487 48.1766 61.8805 46.3087L66.2642 38.685C68.4673 40.0751 70.5804 41.1611 72.6037 41.943C74.6719 42.7249 76.5377 43.1159 78.2013 43.1159C79.1454 43.1159 79.8423 43.0073 80.2919 42.7901C80.7415 42.5294 80.9663 42.1168 80.9663 41.552C80.9663 41.1611 80.809 40.8353 80.4943 40.5746C80.1795 40.314 79.6625 40.0534 78.9431 39.7927C78.2687 39.5321 77.392 39.2497 76.3129 38.9456C73.5254 37.99 71.1874 37.0994 69.299 36.2741C67.4557 35.4487 66.0619 34.4496 65.1177 33.2767C64.2185 32.0604 63.7689 30.4531 63.7689 28.4549C63.7689 26.1092 64.3758 24.0458 65.5898 22.2647C66.8037 20.4402 68.5347 19.0067 70.7828 17.9642C73.0757 16.9216 75.8183 16.4003 79.0106 16.4003C81.3935 16.4003 83.7764 16.7696 86.1593 17.5081C88.5872 18.2031 90.9251 19.4846 93.1731 21.3525L88.3174 28.911C86.0694 27.5644 84.1586 26.6087 82.5849 26.044C81.0563 25.4793 79.685 25.1969 78.471 25.1969C77.8865 25.1969 77.3695 25.2621 76.9199 25.3924C76.5152 25.5227 76.2005 25.7182 75.9757 25.9788C75.7509 26.2395 75.6385 26.587 75.6385 27.0214C75.6385 27.4558 75.7959 27.825 76.1106 28.1291C76.4253 28.3897 76.9199 28.6504 77.5943 28.911C78.2687 29.1282 79.123 29.3889 80.1571 29.6929C83.2144 30.5617 85.7097 31.4523 87.643 32.3645C89.5763 33.2333 90.9926 34.2976 91.8918 35.5573C92.836 36.8171 93.3081 38.4678 93.3081 40.5095C93.3081 44.115 91.9817 46.9386 89.329 48.9803C86.7213 51.0219 83.1469 52.0428 78.6059 52.0428Z"/>
<path d="M83.2483 88.0436H70.4345V68.7563C70.4345 67.0621 70.0748 65.8458 69.3554 65.1073C68.681 64.3254 67.8492 63.9344 66.8601 63.9344C65.871 63.9344 64.7919 64.3906 63.6229 65.3028C62.454 66.215 61.5997 67.3879 61.0602 68.8214V88.0436H48.2464V68.7563C48.2464 67.0621 47.8867 65.8458 47.1673 65.1073C46.4929 64.3254 45.6611 63.9344 44.672 63.9344C43.6829 63.9344 42.6038 64.3906 41.4348 65.3028C40.2658 66.215 39.4116 67.3879 38.8721 68.8214V88.0436H26.0583V53.7695H37.5907V58.852C38.8496 56.9841 40.5806 55.5723 42.7836 54.6166C44.9867 53.6175 47.5944 53.1179 50.6068 53.1179C53.5293 53.1179 55.7323 53.7261 57.216 54.9424C58.6997 56.1587 59.6889 57.5271 60.1834 59.0474C61.4423 57.1795 63.1733 55.7243 65.3764 54.6817C67.5795 53.6392 70.0523 53.1179 72.7949 53.1179C75.1329 53.1179 76.9987 53.5306 78.3925 54.3559C79.7863 55.1813 80.8204 56.2456 81.4948 57.5488C82.2142 58.852 82.6863 60.2203 82.9111 61.6538C83.1359 63.0439 83.2483 64.3254 83.2483 65.4983V88.0436Z"/>
<path d="M103.577 88.6952C100.43 88.6952 97.6422 88.2173 95.2143 87.2617C92.7864 86.306 90.7407 85.0028 89.0772 83.3521C87.4586 81.6579 86.2222 79.7466 85.3679 77.618C84.5586 75.4894 84.154 73.2523 84.154 70.9065C84.154 68.5608 84.5586 66.3236 85.3679 64.1951C86.2222 62.0231 87.4586 60.1117 89.0772 58.461C90.7407 56.8103 92.7864 55.5071 95.2143 54.5514C97.6422 53.5957 100.43 53.1179 103.577 53.1179C106.769 53.1179 109.557 53.5957 111.94 54.5514C114.368 55.5071 116.391 56.8103 118.009 58.461C119.673 60.1117 120.909 62.0231 121.719 64.1951C122.573 66.3236 123 68.5608 123 70.9065C123 73.2523 122.573 75.4894 121.719 77.618C120.909 79.7466 119.673 81.6579 118.009 83.3521C116.391 85.0028 114.368 86.306 111.94 87.2617C109.557 88.2173 106.769 88.6952 103.577 88.6952ZM97.305 70.9065C97.305 72.4269 97.5747 73.7518 98.1143 74.8813C98.6538 75.9673 99.3956 76.8144 100.34 77.4225C101.284 77.9872 102.363 78.2696 103.577 78.2696C104.791 78.2696 105.87 77.9872 106.814 77.4225C107.758 76.8144 108.5 75.9673 109.04 74.8813C109.579 73.7518 109.849 72.4269 109.849 70.9065C109.849 69.3861 109.579 68.0829 109.04 66.9969C108.5 65.8675 107.758 65.0204 106.814 64.4557C105.87 63.8476 104.791 63.5435 103.577 63.5435C102.363 63.5435 101.284 63.8476 100.34 64.4557C99.3956 65.0204 98.6538 65.8675 98.1143 66.9969C97.5747 68.0829 97.305 69.3861 97.305 70.9065Z"/>
<path d="M9.86345 77.1293H22.6772V111.078C22.6772 112.337 22.947 113.315 23.4865 114.01C24.071 114.661 24.9028 114.987 25.9819 114.987C26.5214 114.987 27.1059 114.9 27.7353 114.727C28.3648 114.553 28.6095 114.574 29.149 114.27C29.6954 116.708 31.8029 119.423 34.613 122.138C33.0843 122.833 27.8477 124.37 25.9144 124.761C24.0261 125.152 22.2276 125.348 20.5191 125.348C17.1021 125.348 14.4719 124.501 12.6285 122.806C10.7851 121.069 9.86345 118.614 9.86345 115.443V77.1293Z"/>
<path d="M48.2016 125.348C45.0543 125.348 42.2668 124.87 39.8389 123.914C37.411 122.958 35.3653 121.655 33.7018 120.004C32.0832 118.31 30.8467 116.399 29.9925 114.27C29.1832 112.142 28.7786 109.905 28.7786 107.559C28.7786 105.213 29.1832 102.976 29.9925 100.847C30.8467 98.6755 32.0832 96.7641 33.7018 95.1134C35.3653 93.4627 37.411 92.1595 39.8389 91.2038C42.2668 90.2482 45.0543 89.7703 48.2016 89.7703C51.3938 89.7703 54.1814 90.2482 56.5643 91.2038C58.9922 92.1595 61.0154 93.4627 62.634 95.1134C64.2975 96.7641 65.5339 98.6755 66.3432 100.847C67.1975 102.976 67.6246 105.213 67.6246 107.559C67.6246 109.905 67.1975 112.142 66.3432 114.27C65.5339 116.399 64.2975 118.31 62.634 120.004C61.0154 121.655 58.9922 122.958 56.5643 123.914C54.1814 124.87 51.3938 125.348 48.2016 125.348ZM41.9296 107.559C41.9296 109.079 42.1993 110.404 42.7389 111.534C43.2784 112.62 44.0202 113.467 44.9644 114.075C45.9086 114.64 46.9876 114.922 48.2016 114.922C49.4155 114.922 50.4946 114.64 51.4388 114.075C52.3829 113.467 53.1248 112.62 53.6643 111.534C54.2038 110.404 54.4736 109.079 54.4736 107.559C54.4736 106.039 54.2038 104.735 53.6643 103.649C53.1248 102.52 52.3829 101.673 51.4388 101.108C50.4946 100.5 49.4155 100.196 48.2016 100.196C46.9876 100.196 45.9086 100.5 44.9644 101.108C44.0202 101.673 43.2784 102.52 42.7389 103.649C42.1993 104.735 41.9296 106.039 41.9296 107.559Z"/>
<path d="M27.6004 162C24.4982 162 21.7331 161.544 19.3052 160.632C16.8773 159.676 14.8316 158.394 13.1681 156.787C11.5495 155.18 10.3131 153.334 9.4588 151.249C8.60455 149.164 8.17742 146.97 8.17742 144.667C8.17742 141.366 8.91927 138.347 10.403 135.61C11.8867 132.83 14.0673 130.615 16.9448 128.964C19.8222 127.27 23.3741 126.423 27.6004 126.423C31.8268 126.423 35.3786 127.248 38.2561 128.899C41.1336 130.55 43.3142 132.722 44.7979 135.415C46.2816 138.108 47.0235 141.04 47.0235 144.211C47.0235 144.863 46.9785 145.536 46.8886 146.231C46.8436 146.883 46.7762 147.469 46.6863 147.991H21.8005C21.8904 149.207 22.2276 150.206 22.8121 150.988C23.4416 151.726 24.2059 152.269 25.1051 152.617C26.0493 152.964 27.016 153.138 28.0051 153.138C29.3989 153.138 30.7027 152.834 31.9167 152.226C33.1756 151.618 34.0073 150.771 34.412 149.685L45.27 152.682C44.3258 154.507 42.9995 156.114 41.291 157.504C39.6274 158.894 37.6492 160.002 35.3562 160.827C33.0632 161.609 30.4779 162 27.6004 162ZM21.5308 140.562H33.2655C33.1306 139.433 32.7934 138.477 32.2539 137.695C31.7593 136.913 31.0849 136.305 30.2307 135.871C29.4214 135.436 28.4772 135.219 27.3981 135.219C26.3191 135.219 25.3524 135.436 24.4982 135.871C23.6889 136.305 23.0145 136.913 22.4749 137.695C21.9804 138.477 21.6656 139.433 21.5308 140.562Z"/>
<path fill-rule="evenodd" clip-rule="evenodd" d="M7.72087 62.2728C8.42365 62.523 9.13785 62.7217 9.86345 62.869V88.0436H22.6772V70.9065V59.5325C23.6384 58.6037 24.4529 57.5189 25.1207 56.2781C26.3346 54.1061 26.9416 51.6084 26.9416 48.7848V43.6689C27.6057 44.7464 28.3882 45.7567 29.2891 46.6997C30.9527 48.3504 32.9984 49.6536 35.4262 50.6092C37.8541 51.5649 40.6417 52.0428 43.7889 52.0428C46.9811 52.0428 49.7687 51.5649 52.1516 50.6092C54.5795 49.6536 56.6027 48.3504 58.2213 46.6997C59.8849 45.0055 61.1213 43.0941 61.9306 40.9656C62.7848 38.837 63.212 36.5999 63.212 34.2541C63.212 31.9084 62.7848 29.6712 61.9306 27.5427C61.1213 25.3707 59.8849 23.4593 58.2213 21.8086C56.6027 20.1579 54.5795 18.8547 52.1516 17.899C49.7687 16.9433 46.9811 16.4655 43.7889 16.4655C40.6417 16.4655 37.8541 16.9433 35.4262 17.899C32.9984 18.8547 30.9527 20.1579 29.2891 21.8086C28.3882 22.7274 27.6057 23.7269 26.9416 24.8072V15.2926H14.1278V40.4769H9.86345V50.9025H13.9454C13.9016 51.0265 13.85 51.1459 13.7906 51.2608C13.5658 51.6952 13.251 52.021 12.8464 52.2382C12.4867 52.4554 12.0146 52.564 11.4301 52.564C10.8456 52.564 10.2612 52.4337 9.67666 52.1731C9.09218 51.9559 8.62009 51.6518 8.2604 51.2608L3 59.6665C4.39378 60.7959 5.96741 61.6647 7.72087 62.2728ZM13.9454 50.9025H22.6772V40.4769H14.1278V49.7622C14.1278 50.1775 14.067 50.5576 13.9454 50.9025ZM26.9416 24.8072C26.4125 25.6678 25.9586 26.5796 25.5798 27.5427C24.7706 29.6712 24.3659 31.9084 24.3659 34.2541C24.3659 36.5999 24.7706 38.837 25.5798 40.9656C25.9586 41.9094 26.4125 42.8105 26.9416 43.6689V24.8072ZM22.6772 59.5325V53.7695H9.86345V62.869C10.9018 63.0797 11.9636 63.1851 13.0487 63.1851C15.7913 63.1851 18.1967 62.5769 20.2649 61.3606C21.1517 60.8391 21.9558 60.2297 22.6772 59.5325ZM14.1278 2V12.4256H26.9416V2H14.1278ZM38.3262 38.2289C37.7867 37.0994 37.5169 35.7745 37.5169 34.2541C37.5169 32.7337 37.7867 31.4305 38.3262 30.3445C38.8657 29.2151 39.6076 28.368 40.5518 27.8033C41.4959 27.1952 42.575 26.8911 43.7889 26.8911C45.0029 26.8911 46.0819 27.1952 47.0261 27.8033C47.9703 28.368 48.7121 29.2151 49.2517 30.3445C49.7912 31.4305 50.061 32.7337 50.061 34.2541C50.061 35.7745 49.7912 37.0994 49.2517 38.2289C48.7121 39.3149 47.9703 40.162 47.0261 40.7701C46.0819 41.3348 45.0029 41.6172 43.7889 41.6172C42.575 41.6172 41.4959 41.3348 40.5518 40.7701C39.6076 40.162 38.8657 39.3149 38.3262 38.2289Z"/>
<path fill-rule="evenodd" clip-rule="evenodd" d="M85.986 123.914C87.8743 124.87 90.0999 125.348 92.6626 125.348C95.5851 125.348 98.1703 124.566 100.418 123.002C102.711 121.438 104.51 119.309 105.814 116.616C107.117 113.923 107.769 110.86 107.769 107.429C107.769 104.866 107.365 102.52 106.555 100.391C105.746 98.2628 104.6 96.3949 103.116 94.7876C101.632 93.1804 99.9013 91.9423 97.923 91.0735C95.9447 90.2047 93.7642 89.7703 91.3812 89.7703C88.7286 89.7703 86.4581 90.2699 84.5697 91.269C82.7263 92.2681 81.1752 93.7016 79.9163 95.5695V90.4219H68.7885V127.217C66.6899 126.644 64.5913 126.358 62.4928 126.358C59.3006 126.358 56.558 126.879 54.265 127.921C52.0169 128.964 50.2859 130.397 49.072 132.222C47.8581 134.003 47.2511 136.066 47.2511 138.412C47.2511 140.41 47.7007 142.018 48.5999 143.234C49.5441 144.407 50.9379 145.406 52.7813 146.231C54.6696 147.057 57.0076 147.947 59.7951 148.903C60.8742 149.207 61.7509 149.489 62.4253 149.75C63.1447 150.011 63.6617 150.271 63.9765 150.532C64.2912 150.793 64.4486 151.118 64.4486 151.509C64.4486 152.074 64.2238 152.487 63.7742 152.747C63.3245 152.965 62.6277 153.073 61.6835 153.073C60.0199 153.073 58.1541 152.682 56.0859 151.9C54.0626 151.118 51.9495 150.032 49.7464 148.642L45.3627 156.266C47.4309 158.134 49.9487 159.567 52.9161 160.566C55.9285 161.522 58.9858 162 62.0881 162C66.6292 162 70.2035 160.979 72.8113 158.937C75.4639 156.896 76.7903 154.072 76.7903 150.467C76.7903 148.425 76.3182 146.774 75.374 145.515C74.4748 144.255 73.0585 143.191 71.1252 142.322C69.1919 141.409 66.6966 140.519 63.6393 139.65C62.6052 139.346 61.7509 139.085 61.0765 138.868C60.4021 138.608 59.9075 138.347 59.5928 138.086C59.2781 137.782 59.1207 137.413 59.1207 136.979C59.1207 136.544 59.2331 136.197 59.4579 135.936C59.6827 135.675 59.9974 135.48 60.4021 135.35C60.8517 135.219 61.3687 135.154 61.9532 135.154C63.1672 135.154 64.5385 135.436 66.0671 136.001C66.8835 136.294 67.7906 136.692 68.7885 137.196V138.575H71.305C71.468 138.671 71.6329 138.768 71.7996 138.868L71.988 138.575H81.6023V119.614C82.6364 121.481 84.0976 122.915 85.986 123.914ZM71.988 138.575L76.6554 131.31C74.4074 129.442 72.0694 128.16 69.6415 127.465C69.3572 127.377 69.0728 127.294 68.7885 127.217V137.196C69.5714 137.591 70.4103 138.051 71.305 138.575H71.988ZM90.7743 114.336C90.0099 114.727 89.1557 114.922 88.2115 114.922C87.3123 114.922 86.4356 114.705 85.5813 114.27C84.7271 113.793 83.9402 113.163 83.2209 112.381C82.5465 111.555 82.0069 110.643 81.6023 109.644V103.715C82.0069 103.106 82.4341 102.585 82.8837 102.151C83.3782 101.716 83.8728 101.369 84.3674 101.108C84.8619 100.804 85.379 100.587 85.9185 100.457C86.503 100.283 87.0875 100.196 87.672 100.196C88.7061 100.196 89.6502 100.37 90.5045 100.717C91.3588 101.065 92.1006 101.564 92.73 102.216C93.3595 102.824 93.8316 103.562 94.1463 104.431C94.506 105.3 94.6858 106.277 94.6858 107.363C94.6858 108.406 94.5285 109.383 94.2138 110.296C93.899 111.208 93.4494 112.012 92.8649 112.707C92.2804 113.402 91.5836 113.945 90.7743 114.336Z"/>
</mask>
<path d="M7.72087 62.2728L8.39157 60.3887L8.38391 60.3859L8.37624 60.3833L7.72087 62.2728ZM3 59.6665L1.30463 58.6055L0.365608 60.1059L1.74084 61.2203L3 59.6665ZM8.2604 51.2608L9.73226 49.9067L7.95644 47.9765L6.56503 50.1998L8.2604 51.2608ZM9.67666 52.1731L10.4912 50.3465L10.433 50.3205L10.3733 50.2983L9.67666 52.1731ZM12.8464 52.2382L11.9005 50.476L11.8559 50.5L11.8125 50.5262L12.8464 52.2382ZM13.7906 51.2608L15.5668 52.1801L15.5668 52.18L13.7906 51.2608ZM14.1278 15.2926V13.2926H12.1278V15.2926H14.1278ZM26.9416 15.2926H28.9416V13.2926H26.9416V15.2926ZM25.1207 56.2781L23.3748 55.3024L23.3671 55.3163L23.3595 55.3303L25.1207 56.2781ZM20.2649 61.3606L21.2788 63.0846L20.2649 61.3606ZM14.1278 12.4256H12.1278V14.4256H14.1278V12.4256ZM14.1278 2V0H12.1278V2H14.1278ZM26.9416 2H28.9416V0H26.9416V2ZM26.9416 12.4256V14.4256H28.9416V12.4256H26.9416ZM35.4262 50.6092L34.6937 52.4703L34.6937 52.4703L35.4262 50.6092ZM29.2891 46.6997L27.843 48.0813L27.8614 48.1005L27.8804 48.1193L29.2891 46.6997ZM25.5798 40.9656L23.7104 41.6764L23.7169 41.6935L23.7237 41.7105L25.5798 40.9656ZM25.5798 27.5427L23.7186 26.8106L23.7145 26.8212L23.7104 26.8319L25.5798 27.5427ZM29.2891 21.8086L27.8804 20.3889L27.8707 20.3986L27.8611 20.4084L29.2891 21.8086ZM35.4262 17.899L36.1588 19.76L36.1588 19.76L35.4262 17.899ZM52.1516 17.899L51.4072 19.7553L51.4191 19.76L52.1516 17.899ZM58.2213 21.8086L56.7933 23.2089L56.8029 23.2186L56.8126 23.2283L58.2213 21.8086ZM61.9306 27.5427L60.0565 28.241L60.0652 28.2644L60.0745 28.2876L61.9306 27.5427ZM61.9306 40.9656L60.0745 40.2207L60.0677 40.2377L60.0611 40.2548L61.9306 40.9656ZM58.2213 46.6997L56.7943 45.2984L56.7933 45.2994L58.2213 46.6997ZM52.1516 50.6092L51.4191 48.7482L51.4072 48.753L52.1516 50.6092ZM38.3262 38.2289L36.5215 39.091L36.5282 39.1049L36.5351 39.1187L38.3262 38.2289ZM40.5518 40.7701L39.4688 42.4515L39.4967 42.4695L39.5252 42.4865L40.5518 40.7701ZM47.0261 40.7701L48.0527 42.4865L48.0812 42.4695L48.1091 42.4515L47.0261 40.7701ZM49.2517 38.2289L51.0428 39.1187L51.0497 39.1049L51.0563 39.091L49.2517 38.2289ZM49.2517 30.3445L47.447 31.2066L47.4537 31.2206L47.4605 31.2344L49.2517 30.3445ZM47.0261 27.8033L45.9431 29.4847L45.971 29.5027L45.9995 29.5197L47.0261 27.8033ZM40.5518 27.8033L41.5784 29.5197L41.6069 29.5027L41.6348 29.4847L40.5518 27.8033ZM38.3262 30.3445L40.1174 31.2344L40.1242 31.2206L40.1309 31.2066L38.3262 30.3445ZM69.4339 50.6092L68.7957 52.5047L68.8124 52.5103L68.8291 52.5156L69.4339 50.6092ZM61.8805 46.3087L60.1467 45.3118L59.3421 46.7111L60.54 47.793L61.8805 46.3087ZM66.2642 38.685L67.3314 36.9936L65.5691 35.8816L64.5304 37.6881L66.2642 38.685ZM72.6037 41.943L71.8827 43.8085L71.8895 43.8112L71.8964 43.8138L72.6037 41.943ZM80.2919 42.7901L81.1619 44.5909L81.2298 44.5582L81.295 44.5204L80.2919 42.7901ZM78.9431 39.7927L78.2221 41.6582L78.2419 41.6659L78.2618 41.6731L78.9431 39.7927ZM76.3129 38.9456L75.6643 40.8375L75.7169 40.8556L75.7704 40.8707L76.3129 38.9456ZM69.299 36.2741L68.4818 38.0995L68.4899 38.1031L68.4981 38.1067L69.299 36.2741ZM65.1177 33.2767L63.5095 34.4657L63.534 34.4988L63.5598 34.5309L65.1177 33.2767ZM65.5898 22.2647L67.2424 23.3911L67.2487 23.3819L67.2549 23.3726L65.5898 22.2647ZM70.7828 17.9642L69.955 16.1435L69.9481 16.1466L69.9413 16.1498L70.7828 17.9642ZM86.1593 17.5081L85.5673 19.4184L85.588 19.4248L85.6089 19.4308L86.1593 17.5081ZM93.1731 21.3525L94.8558 22.4335L95.8121 20.9449L94.4513 19.8142L93.1731 21.3525ZM88.3174 28.911L87.2896 30.6267L88.9524 31.6228L90.0001 29.992L88.3174 28.911ZM82.5849 26.044L81.8919 27.9201L81.9006 27.9233L81.9094 27.9264L82.5849 26.044ZM76.9199 25.3924L76.3631 23.4715L76.3348 23.4797L76.3068 23.4887L76.9199 25.3924ZM75.9757 25.9788L77.4902 27.2851L77.4902 27.2851L75.9757 25.9788ZM76.1106 28.1291L74.7209 29.5674L74.776 29.6206L74.8349 29.6695L76.1106 28.1291ZM77.5943 28.911L76.8733 30.7766L76.9267 30.7972L76.9812 30.8147L77.5943 28.911ZM80.1571 29.6929L79.5928 31.6117L79.6016 31.6143L79.6104 31.6168L80.1571 29.6929ZM87.643 32.3645L86.7895 34.1733L86.8063 34.1812L86.8232 34.1888L87.643 32.3645ZM91.8918 35.5573L90.2639 36.7193L90.2775 36.7382L90.2914 36.7568L91.8918 35.5573ZM89.329 48.9803L88.1092 47.3953L88.1026 47.4004L88.0961 47.4055L89.329 48.9803ZM9.86345 88.0436H7.86345V90.0436H9.86345V88.0436ZM9.86345 53.7695V51.7695H7.86345V53.7695H9.86345ZM22.6772 53.7695H24.6772V51.7695H22.6772V53.7695ZM22.6772 88.0436V90.0436H24.6772V88.0436H22.6772ZM9.86345 50.9025H7.86345V52.9025H9.86345V50.9025ZM9.86345 40.4769V38.4769H7.86345V40.4769H9.86345ZM22.6772 40.4769H24.6772V38.4769H22.6772V40.4769ZM22.6772 50.9025V52.9025H24.6772V50.9025H22.6772ZM83.2483 88.0436V90.0436H85.2483V88.0436H83.2483ZM70.4345 88.0436H68.4345V90.0436H70.4345V88.0436ZM69.3554 65.1073L67.8409 66.4136L67.8805 66.4595L67.9228 66.5029L69.3554 65.1073ZM63.6229 65.3028L62.3925 63.7261L62.3925 63.7261L63.6229 65.3028ZM61.0602 68.8214L59.1884 68.1169L59.0602 68.4575V68.8214H61.0602ZM61.0602 88.0436V90.0436H63.0602V88.0436H61.0602ZM48.2464 88.0436H46.2464V90.0436H48.2464V88.0436ZM47.1673 65.1073L45.6528 66.4136L45.6924 66.4595L45.7347 66.5029L47.1673 65.1073ZM41.4348 65.3028L42.6652 66.8795L42.6652 66.8795L41.4348 65.3028ZM38.8721 68.8214L37.0003 68.1169L36.8721 68.4575V68.8214H38.8721ZM38.8721 88.0436V90.0436H40.8721V88.0436H38.8721ZM26.0583 88.0436H24.0583V90.0436H26.0583V88.0436ZM26.0583 53.7695V51.7695H24.0583V53.7695H26.0583ZM37.5907 53.7695H39.5907V51.7695H37.5907V53.7695ZM37.5907 58.852H35.5907V65.3981L39.2492 59.9697L37.5907 58.852ZM42.7836 54.6166L43.5796 56.4514L43.5947 56.4448L43.6097 56.438L42.7836 54.6166ZM57.216 54.9424L58.484 53.3957L58.484 53.3957L57.216 54.9424ZM60.1834 59.0474L58.2815 59.6661L59.5501 63.5658L61.8419 60.1652L60.1834 59.0474ZM65.3764 54.6817L66.2319 56.4895L66.2319 56.4895L65.3764 54.6817ZM78.3925 54.3559L79.4116 52.635L79.4116 52.635L78.3925 54.3559ZM81.4948 57.5488L79.7186 58.468L79.7309 58.4918L79.7439 58.5153L81.4948 57.5488ZM82.9111 61.6538L80.9352 61.9637L80.9367 61.9731L82.9111 61.6538ZM95.2143 87.2617L94.4817 89.1227L94.4817 89.1227L95.2143 87.2617ZM89.0772 83.3521L87.6311 84.7337L87.6495 84.753L87.6684 84.7717L89.0772 83.3521ZM85.3679 77.618L83.4985 78.3288L83.505 78.3459L83.5118 78.3629L85.3679 77.618ZM85.3679 64.1951L83.5067 63.463L83.5025 63.4736L83.4985 63.4843L85.3679 64.1951ZM89.0772 58.461L87.6684 57.0413L87.6587 57.051L87.6491 57.0608L89.0772 58.461ZM95.2143 54.5514L95.9468 56.4124L95.9468 56.4124L95.2143 54.5514ZM111.94 54.5514L111.195 56.4077L111.207 56.4124L111.94 54.5514ZM118.009 58.461L116.581 59.8613L116.591 59.871L116.601 59.8807L118.009 58.461ZM121.719 64.1951L119.844 64.8934L119.853 64.9168L119.863 64.94L121.719 64.1951ZM121.719 77.618L119.863 76.8731L119.856 76.8901L119.849 76.9072L121.719 77.618ZM118.009 83.3521L116.582 81.9508L116.581 81.9518L118.009 83.3521ZM111.94 87.2617L111.207 85.4006L111.195 85.4054L111.94 87.2617ZM98.1143 74.8813L96.3096 75.7434L96.3162 75.7573L96.3231 75.7711L98.1143 74.8813ZM100.34 77.4225L99.2568 79.1039L99.2847 79.1219L99.3132 79.1389L100.34 77.4225ZM106.814 77.4225L107.841 79.1389L107.869 79.1219L107.897 79.1039L106.814 77.4225ZM109.04 74.8813L110.831 75.7711L110.838 75.7573L110.844 75.7434L109.04 74.8813ZM109.04 66.9969L107.235 67.859L107.242 67.873L107.249 67.8868L109.04 66.9969ZM106.814 64.4557L105.731 66.1371L105.759 66.1551L105.788 66.1721L106.814 64.4557ZM100.34 64.4557L101.366 66.1721L101.395 66.1551L101.423 66.1371L100.34 64.4557ZM98.1143 66.9969L99.9054 67.8868L99.9123 67.873L99.9189 67.859L98.1143 66.9969ZM9.86345 77.1293V75.1293H7.86345V77.1293H9.86345ZM22.6772 77.1293H24.6772V75.1293H22.6772V77.1293ZM23.4865 114.01L21.9067 115.236L21.9503 115.292L21.9977 115.345L23.4865 114.01ZM27.7353 114.727L27.2031 112.799L27.2031 112.799L27.7353 114.727ZM29.149 114.27L31.1006 113.833L30.5119 111.207L28.167 112.528L29.149 114.27ZM34.613 122.138L35.4408 123.959L38.1166 122.742L36.0027 120.7L34.613 122.138ZM25.9144 124.761L25.518 122.801L25.5089 122.803L25.9144 124.761ZM12.6285 122.806L11.2567 124.262L11.2659 124.27L11.2752 124.279L12.6285 122.806ZM39.8389 123.914L39.1063 125.775L39.1063 125.775L39.8389 123.914ZM33.7018 120.004L32.2557 121.386L32.2741 121.405L32.293 121.424L33.7018 120.004ZM29.9925 114.27L28.1231 114.981L28.1296 114.998L28.1364 115.015L29.9925 114.27ZM29.9925 100.847L28.1313 100.115L28.1271 100.126L28.1231 100.137L29.9925 100.847ZM33.7018 95.1134L32.293 93.6937L32.2833 93.7034L32.2737 93.7132L33.7018 95.1134ZM39.8389 91.2038L40.5714 93.0649L40.5714 93.0649L39.8389 91.2038ZM56.5643 91.2038L55.8198 93.0602L55.8317 93.0649L56.5643 91.2038ZM62.634 95.1134L61.2059 96.5137L61.2155 96.5235L61.2252 96.5331L62.634 95.1134ZM66.3432 100.847L64.4691 101.546L64.4778 101.569L64.4871 101.592L66.3432 100.847ZM66.3432 114.27L64.4871 113.526L64.4803 113.543L64.4738 113.56L66.3432 114.27ZM62.634 120.004L61.2069 118.603L61.2059 118.604L62.634 120.004ZM56.5643 123.914L55.8317 122.053L55.8198 122.058L56.5643 123.914ZM42.7389 111.534L40.9342 112.396L40.9408 112.41L40.9477 112.424L42.7389 111.534ZM44.9644 114.075L43.8814 115.756L43.9093 115.774L43.9378 115.791L44.9644 114.075ZM51.4388 114.075L52.4654 115.791L52.4939 115.774L52.5218 115.756L51.4388 114.075ZM53.6643 111.534L55.4554 112.424L55.4623 112.41L55.469 112.396L53.6643 111.534ZM53.6643 103.649L51.8596 104.511L51.8663 104.525L51.8732 104.539L53.6643 103.649ZM51.4388 101.108L50.3557 102.79L50.3837 102.808L50.4122 102.825L51.4388 101.108ZM44.9644 101.108L45.991 102.825L46.0195 102.808L46.0474 102.79L44.9644 101.108ZM42.7389 103.649L44.53 104.539L44.5369 104.525L44.5435 104.511L42.7389 103.649ZM85.986 123.914L85.0506 125.682L85.0667 125.69L85.0828 125.699L85.986 123.914ZM81.6023 119.614L83.3521 118.645L79.6023 111.872V119.614H81.6023ZM81.6023 138.575V140.575H83.6023V138.575H81.6023ZM68.7885 138.575H66.7885V140.575H68.7885V138.575ZM68.7885 90.4219V88.4219H66.7885V90.4219H68.7885ZM79.9163 90.4219H81.9163V88.4219H79.9163V90.4219ZM79.9163 95.5695H77.9163V102.116L81.5748 96.6873L79.9163 95.5695ZM84.5697 91.269L83.6344 89.5012L83.6255 89.5059L83.6167 89.5107L84.5697 91.269ZM97.923 91.0735L98.7272 89.2423L98.7272 89.2423L97.923 91.0735ZM106.555 100.391L108.425 99.6806L108.425 99.6806L106.555 100.391ZM105.814 116.616L104.013 115.745L104.013 115.745L105.814 116.616ZM100.418 123.002L99.2914 121.35L99.2838 121.355L99.2762 121.36L100.418 123.002ZM90.7743 114.336L89.9043 112.535L89.8838 112.545L89.8635 112.555L90.7743 114.336ZM92.8649 112.707L94.3956 113.994L94.3956 113.994L92.8649 112.707ZM94.2138 110.296L92.3231 109.643L92.3231 109.643L94.2138 110.296ZM94.1463 104.431L92.2659 105.112L92.2812 105.155L92.2984 105.196L94.1463 104.431ZM92.73 102.216L91.2916 103.605L91.3156 103.63L91.3404 103.654L92.73 102.216ZM90.5045 100.717L91.2581 98.8646L91.2581 98.8646L90.5045 100.717ZM85.9185 100.457L86.3881 102.401L86.4386 102.388L86.4884 102.374L85.9185 100.457ZM84.3674 101.108L85.2998 102.877L85.3584 102.847L85.4149 102.812L84.3674 101.108ZM82.8837 102.151L81.5638 100.648L81.5281 100.679L81.494 100.712L82.8837 102.151ZM81.6023 103.715L79.9372 102.607L79.6023 103.11V103.715H81.6023ZM81.6023 109.644H79.6023V110.034L79.7486 110.395L81.6023 109.644ZM83.2209 112.381L81.6722 113.646L81.7093 113.692L81.749 113.735L83.2209 112.381ZM85.5813 114.27L84.605 116.016L84.6395 116.035L84.6748 116.053L85.5813 114.27ZM19.3052 160.632L18.5727 162.493L18.5872 162.498L18.6017 162.504L19.3052 160.632ZM13.1681 156.787L11.7588 158.206L11.7685 158.216L11.7784 158.226L13.1681 156.787ZM9.4588 151.249L7.6081 152.007L7.6081 152.007L9.4588 151.249ZM10.403 135.61L12.1612 136.564L12.1674 136.552L10.403 135.61ZM16.9448 128.964L17.94 130.699L17.9497 130.693L17.9595 130.687L16.9448 128.964ZM38.2561 128.899L39.2513 127.164L39.2513 127.164L38.2561 128.899ZM44.7979 135.415L46.5497 134.45L46.5497 134.45L44.7979 135.415ZM46.8886 146.231L44.9051 145.975L44.8975 146.034L44.8933 146.094L46.8886 146.231ZM46.6863 147.991V149.991H48.3708L48.6572 148.331L46.6863 147.991ZM21.8005 147.991V145.991H19.6472L19.806 148.138L21.8005 147.991ZM22.8121 150.988L21.2102 152.185L21.2485 152.237L21.29 152.285L22.8121 150.988ZM25.1051 152.617L24.3842 154.483L24.3992 154.488L24.4143 154.494L25.1051 152.617ZM31.9167 152.226L31.0467 150.425L31.0337 150.431L31.0209 150.438L31.9167 152.226ZM34.412 149.685L34.9442 147.757L33.1777 147.269L32.5379 148.986L34.412 149.685ZM45.27 152.682L47.0462 153.601L48.18 151.411L45.8022 150.754L45.27 152.682ZM41.291 157.504L40.0288 155.953L40.0186 155.961L40.0086 155.969L41.291 157.504ZM35.3562 160.827L36.0017 162.72L36.0176 162.715L36.0335 162.709L35.3562 160.827ZM21.5308 140.562L19.5449 140.325L19.2777 142.562H21.5308V140.562ZM33.2655 140.562V142.562H35.5186L35.2514 140.325L33.2655 140.562ZM32.2539 137.695L30.5636 138.764L30.585 138.798L30.6077 138.831L32.2539 137.695ZM30.2307 135.871L29.2848 137.633L29.3043 137.644L29.3241 137.654L30.2307 135.871ZM24.4982 135.871L23.5916 134.088L23.5718 134.098L23.5523 134.109L24.4982 135.871ZM22.4749 137.695L20.8288 136.56L20.806 136.592L20.7847 136.626L22.4749 137.695ZM52.9161 160.566L52.2779 162.462L52.2946 162.468L52.3113 162.473L52.9161 160.566ZM45.3627 156.266L43.6289 155.269L42.8243 156.668L44.0222 157.75L45.3627 156.266ZM49.7464 148.642L50.8137 146.951L49.0513 145.839L48.0126 147.645L49.7464 148.642ZM56.0859 151.9L55.3649 153.766L55.3717 153.768L55.3786 153.771L56.0859 151.9ZM63.7742 152.747L64.6441 154.548L64.712 154.515L64.7772 154.478L63.7742 152.747ZM62.4253 149.75L61.7044 151.615L61.7241 151.623L61.744 151.63L62.4253 149.75ZM59.7951 148.903L59.1465 150.795L59.1991 150.813L59.2527 150.828L59.7951 148.903ZM52.7813 146.231L51.964 148.057L51.9721 148.06L51.9803 148.064L52.7813 146.231ZM48.5999 143.234L46.9917 144.423L47.0162 144.456L47.042 144.488L48.5999 143.234ZM49.072 132.222L50.7246 133.348L50.7309 133.339L50.7371 133.33L49.072 132.222ZM54.265 127.921L53.4372 126.101L53.4303 126.104L53.4235 126.107L54.265 127.921ZM69.6415 127.465L69.0495 129.376L69.0702 129.382L69.0911 129.388L69.6415 127.465ZM76.6554 131.31L78.3381 132.391L79.2944 130.902L77.9336 129.771L76.6554 131.31ZM71.7996 138.868L70.7719 140.584L72.4347 141.58L73.4823 139.949L71.7996 138.868ZM66.0671 136.001L65.3741 137.877L65.3828 137.881L65.3916 137.884L66.0671 136.001ZM60.4021 135.35L59.8453 133.429L59.817 133.437L59.789 133.446L60.4021 135.35ZM59.4579 135.936L60.9724 137.242L60.9724 137.242L59.4579 135.936ZM59.5928 138.086L58.2031 139.525L58.2582 139.578L58.3171 139.627L59.5928 138.086ZM61.0765 138.868L60.3555 140.734L60.4089 140.754L60.4634 140.772L61.0765 138.868ZM63.6393 139.65L63.075 141.569L63.0838 141.571L63.0926 141.574L63.6393 139.65ZM71.1252 142.322L70.2717 144.13L70.2885 144.138L70.3054 144.146L71.1252 142.322ZM75.374 145.515L73.7462 146.677L73.7597 146.695L73.7736 146.714L75.374 145.515ZM72.8113 158.937L71.5914 157.353L71.5848 157.358L71.5783 157.363L72.8113 158.937ZM8.37624 60.3833C6.83431 59.8485 5.46647 59.0909 4.25916 58.1126L1.74084 61.2203C3.3211 62.5009 5.10051 63.4809 7.06551 64.1624L8.37624 60.3833ZM4.69537 60.7274L9.95577 52.3218L6.56503 50.1998L1.30463 58.6055L4.69537 60.7274ZM6.78855 52.615C7.39613 53.2754 8.15095 53.7397 8.98 54.0478L10.3733 50.2983C10.0334 50.172 9.84404 50.0282 9.73226 49.9067L6.78855 52.615ZM8.86213 53.9997C9.6784 54.3637 10.5393 54.564 11.4301 54.564V50.564C11.152 50.564 10.8439 50.5037 10.4912 50.3465L8.86213 53.9997ZM11.4301 54.564C12.2428 54.564 13.1096 54.4156 13.8802 53.9503L11.8125 50.5262C11.8638 50.4952 11.7865 50.564 11.4301 50.564V54.564ZM13.7923 54.0004C14.576 53.5797 15.1693 52.9482 15.5668 52.1801L12.0143 50.3416C11.9622 50.4423 11.9261 50.4623 11.9005 50.476L13.7923 54.0004ZM14.1278 17.2926H26.9416V13.2926H14.1278V17.2926ZM24.9416 48.7848C24.9416 51.3135 24.4007 53.4669 23.3748 55.3024L26.8665 57.2539C28.2685 54.7454 28.9416 51.9032 28.9416 48.7848H24.9416ZM19.251 59.6366C17.532 60.6476 15.4867 61.1851 13.0487 61.1851V65.1851C16.0959 65.1851 18.8614 64.5062 21.2788 63.0846L19.251 59.6366ZM16.1278 12.4256V2H12.1278V12.4256H16.1278ZM14.1278 4H26.9416V0H14.1278V4ZM24.9416 2V12.4256H28.9416V2H24.9416ZM26.9416 10.4256H14.1278V14.4256H26.9416V10.4256ZM43.7889 50.0428C40.842 50.0428 38.3107 49.5953 36.1588 48.7482L34.6937 52.4703C37.3976 53.5346 40.4413 54.0428 43.7889 54.0428V50.0428ZM36.1588 48.7482C33.9552 47.8808 32.1475 46.7185 30.6978 45.28L27.8804 48.1193C29.7578 49.9822 32.0415 51.4263 34.6937 52.4703L36.1588 48.7482ZM27.4493 40.2548C26.7289 38.3602 26.3659 36.3644 26.3659 34.2541H22.3659C22.3659 36.8353 22.8122 39.3139 23.7104 41.6764L27.4493 40.2548ZM26.3659 34.2541C26.3659 32.1438 26.7289 30.1481 27.4493 28.2534L23.7104 26.8319C22.8122 29.1943 22.3659 31.6729 22.3659 34.2541H26.3659ZM30.6978 23.2283C32.1475 21.7898 33.9552 20.6274 36.1588 19.76L34.6937 16.038C32.0415 17.082 29.7578 18.526 27.8804 20.3889L30.6978 23.2283ZM36.1588 19.76C38.3107 18.913 40.842 18.4655 43.7889 18.4655V14.4655C40.4413 14.4655 37.3976 14.9737 34.6937 16.038L36.1588 19.76ZM43.7889 18.4655C46.786 18.4655 49.3109 18.9146 51.4072 19.7553L52.8961 16.0427C50.2265 14.9721 47.1762 14.4655 43.7889 14.4655V18.4655ZM51.4191 19.76C53.619 20.626 55.3954 21.7832 56.7933 23.2089L59.6494 20.4084C57.8101 18.5325 55.54 17.0834 52.8842 16.038L51.4191 19.76ZM56.8126 23.2283C58.273 24.6774 59.3494 26.3434 60.0565 28.241L63.8047 26.8444C62.8932 24.398 61.4968 22.2412 59.6301 20.3889L56.8126 23.2283ZM60.0745 28.2876C60.8315 30.1738 61.212 32.1577 61.212 34.2541H65.212C65.212 31.6591 64.7382 29.1686 63.7867 26.7978L60.0745 28.2876ZM61.212 34.2541C61.212 36.3506 60.8315 38.3344 60.0745 40.2207L63.7867 41.7105C64.7382 39.3397 65.212 36.8492 65.212 34.2541H61.212ZM60.0611 40.2548C59.3542 42.1141 58.2727 43.7928 56.7943 45.2984L59.6484 48.1009C61.4971 46.2182 62.8884 44.0742 63.8 41.6764L60.0611 40.2548ZM56.7933 45.2994C55.3954 46.725 53.619 47.8823 51.4191 48.7482L52.8842 52.4703C55.54 51.4249 57.8101 49.9757 59.6494 48.0999L56.7933 45.2994ZM51.4072 48.753C49.3109 49.5937 46.786 50.0428 43.7889 50.0428V54.0428C47.1762 54.0428 50.2265 53.5362 52.8961 52.4655L51.4072 48.753ZM35.5169 34.2541C35.5169 36.0099 35.8288 37.6408 36.5215 39.091L40.1309 37.3668C39.7446 36.5581 39.5169 35.5391 39.5169 34.2541H35.5169ZM36.5351 39.1187C37.2218 40.5009 38.1974 41.6326 39.4688 42.4515L41.6348 39.0887C41.0178 38.6913 40.5097 38.1288 40.1174 37.339L36.5351 39.1187ZM39.5252 42.4865C40.8111 43.2556 42.2519 43.6172 43.7889 43.6172V39.6172C42.898 39.6172 42.1808 39.414 41.5784 39.0537L39.5252 42.4865ZM43.7889 43.6172C45.3259 43.6172 46.7668 43.2556 48.0527 42.4865L45.9995 39.0537C45.3971 39.414 44.6798 39.6172 43.7889 39.6172V43.6172ZM48.1091 42.4515C49.3804 41.6326 50.3561 40.5009 51.0428 39.1187L47.4605 37.339C47.0682 38.1288 46.5601 38.6913 45.9431 39.0887L48.1091 42.4515ZM51.0563 39.091C51.7491 37.6408 52.061 36.0099 52.061 34.2541H48.061C48.061 35.5391 47.8333 36.5581 47.447 37.3668L51.0563 39.091ZM52.061 34.2541C52.061 32.5014 51.7501 30.8784 51.0428 29.4547L47.4605 31.2344C47.8323 31.9827 48.061 32.966 48.061 34.2541H52.061ZM51.0563 29.4825C50.3712 28.0483 49.3796 26.8805 48.0527 26.0869L45.9995 29.5197C46.561 29.8555 47.053 30.3819 47.447 31.2066L51.0563 29.4825ZM48.1091 26.1219C46.8158 25.2889 45.3546 24.8911 43.7889 24.8911V28.8911C44.6512 28.8911 45.348 29.1014 45.9431 29.4847L48.1091 26.1219ZM43.7889 24.8911C42.2233 24.8911 40.7621 25.2889 39.4688 26.1219L41.6348 29.4847C42.2298 29.1014 42.9267 28.8911 43.7889 28.8911V24.8911ZM39.5252 26.0869C38.1983 26.8805 37.2066 28.0483 36.5215 29.4825L40.1309 31.2066C40.5249 30.3819 41.0169 29.8555 41.5784 29.5197L39.5252 26.0869ZM36.5351 29.4547C35.8278 30.8784 35.5169 32.5014 35.5169 34.2541H39.5169C39.5169 32.9661 39.7456 31.9827 40.1174 31.2344L36.5351 29.4547ZM78.6059 50.0428C75.7127 50.0428 72.8592 49.5977 70.0387 48.7029L68.8291 52.5156C72.0334 53.5322 75.2946 54.0428 78.6059 54.0428V50.0428ZM70.0721 48.7138C67.3324 47.7914 65.0621 46.4872 63.221 44.8245L60.54 47.793C62.8354 49.866 65.6006 51.4289 68.7957 52.5047L70.0721 48.7138ZM63.6143 47.3057L67.998 39.682L64.5304 37.6881L60.1467 45.3118L63.6143 47.3057ZM65.1969 40.3764C67.4885 41.8223 69.7175 42.9717 71.8827 43.8085L73.3246 40.0775C71.4434 39.3504 69.4461 38.3278 67.3314 36.9936L65.1969 40.3764ZM71.8964 43.8138C74.1205 44.6546 76.2311 45.1159 78.2013 45.1159V41.1159C76.8444 41.1159 75.2232 40.7952 73.3109 40.0722L71.8964 43.8138ZM78.2013 45.1159C79.2246 45.1159 80.2944 45.01 81.1619 44.5909L79.422 40.9892C79.4313 40.9847 79.3511 41.0229 79.1241 41.0583C78.905 41.0924 78.6024 41.1159 78.2013 41.1159V45.1159ZM81.295 44.5204C82.424 43.8658 82.9663 42.7549 82.9663 41.552H78.9663C78.9663 41.5673 78.9646 41.4693 79.0414 41.3283C79.1226 41.1792 79.231 41.0933 79.2889 41.0598L81.295 44.5204ZM82.9663 41.552C82.9663 40.5351 82.5196 39.6551 81.7699 39.0343L79.2186 42.115C79.1834 42.0859 79.1089 42.0116 79.0474 41.8843C78.9847 41.7546 78.9663 41.6331 78.9663 41.552H82.9663ZM81.7699 39.0343C81.1849 38.5498 80.4055 38.1953 79.6244 37.9123L78.2618 41.6731C78.5689 41.7844 78.801 41.8843 78.9702 41.9696C79.0536 42.0117 79.115 42.0468 79.1582 42.0738C79.2019 42.1013 79.2195 42.1157 79.2186 42.115L81.7699 39.0343ZM79.6641 37.9272C78.9086 37.6352 77.9659 37.3336 76.8554 37.0206L75.7704 40.8707C76.818 41.1659 77.6288 41.429 78.2221 41.6582L79.6641 37.9272ZM76.9615 37.0537C74.2057 36.1089 71.9223 35.238 70.1 34.4415L68.4981 38.1067C70.4525 38.9609 72.8451 39.871 75.6643 40.8375L76.9615 37.0537ZM70.1163 34.4487C68.4674 33.7104 67.3657 32.8798 66.6756 32.0226L63.5598 34.5309C64.7581 36.0194 66.4439 37.1871 68.4818 38.0995L70.1163 34.4487ZM66.7259 32.0878C66.1519 31.3113 65.7689 30.1618 65.7689 28.4549H61.7689C61.7689 30.7445 62.2851 32.8095 63.5095 34.4657L66.7259 32.0878ZM65.7689 28.4549C65.7689 26.4738 66.2749 24.8107 67.2424 23.3911L63.9372 21.1383C62.4768 23.2808 61.7689 25.7445 61.7689 28.4549H65.7689ZM67.2549 23.3726C68.2389 21.8937 69.6658 20.6868 71.6242 19.7786L69.9413 16.1498C67.4037 17.3267 65.3686 18.9868 63.9247 21.1568L67.2549 23.3726ZM71.6105 19.7848C73.5839 18.8876 76.0301 18.4003 79.0106 18.4003V14.4003C75.6066 14.4003 72.5676 14.9556 69.955 16.1435L71.6105 19.7848ZM79.0106 18.4003C81.1835 18.4003 83.367 18.7366 85.5673 19.4184L86.7513 15.5977C84.1857 14.8026 81.6034 14.4003 79.0106 14.4003V18.4003ZM85.6089 19.4308C87.7314 20.0384 89.8269 21.1724 91.895 22.8908L94.4513 19.8142C92.0233 17.7968 89.4429 16.3677 86.7097 15.5853L85.6089 19.4308ZM91.4905 20.2715L86.6347 27.83L90.0001 29.992L94.8558 22.4335L91.4905 20.2715ZM89.3452 27.1953C87.0406 25.8148 85.0052 24.7877 83.2605 24.1615L81.9094 27.9264C83.3119 28.4298 85.0981 29.3139 87.2896 30.6267L89.3452 27.1953ZM83.278 24.1679C81.5987 23.5476 79.9871 23.1969 78.471 23.1969V27.1969C79.3828 27.1969 80.5138 27.411 81.8919 27.9201L83.278 24.1679ZM78.471 23.1969C77.7428 23.1969 77.032 23.2776 76.3631 23.4715L77.4767 27.3133C77.707 27.2466 78.0303 27.1969 78.471 27.1969V23.1969ZM76.3068 23.4887C75.6344 23.7052 74.9765 24.0751 74.4612 24.6726L77.4902 27.2851C77.4761 27.3014 77.4629 27.314 77.4524 27.3229C77.4472 27.3273 77.443 27.3305 77.4401 27.3326C77.4371 27.3347 77.4356 27.3357 77.4356 27.3357C77.4359 27.3355 77.4635 27.3185 77.533 27.2961L76.3068 23.4887ZM74.4612 24.6726C73.8479 25.3836 73.6385 26.2369 73.6385 27.0214H77.6385C77.6385 26.9748 77.6447 26.9919 77.6257 27.0505C77.6049 27.1148 77.5626 27.2012 77.4902 27.2851L74.4612 24.6726ZM73.6385 27.0214C73.6385 28.0027 74.0194 28.8897 74.7209 29.5674L77.5003 26.6908C77.5177 26.7076 77.5611 26.7572 77.5964 26.84C77.6318 26.9231 77.6385 26.9915 77.6385 27.0214H73.6385ZM74.8349 29.6695C75.3968 30.1348 76.1274 30.4883 76.8733 30.7766L78.3153 27.0455C77.7124 26.8125 77.4538 26.6447 77.3862 26.5887L74.8349 29.6695ZM76.9812 30.8147C77.6779 31.0391 78.5498 31.305 79.5928 31.6117L80.7213 27.7742C79.6961 27.4727 78.8596 27.2174 78.2074 27.0073L76.9812 30.8147ZM79.6104 31.6168C82.6079 32.4686 84.9903 33.3243 86.7895 34.1733L88.4965 30.5557C86.4291 29.5803 83.8209 28.6549 80.7037 27.7691L79.6104 31.6168ZM86.8232 34.1888C88.5477 34.9637 89.633 35.8354 90.2639 36.7193L93.5196 34.3954C92.3521 32.7598 90.6049 31.5029 88.4628 30.5402L86.8232 34.1888ZM90.2914 36.7568C90.9083 37.58 91.3081 38.7716 91.3081 40.5095H95.3081C95.3081 38.164 94.7636 36.0542 93.4922 34.3579L90.2914 36.7568ZM91.3081 40.5095C91.3081 43.5495 90.2277 45.7648 88.1092 47.3953L90.5489 50.5652C93.7357 48.1124 95.3081 44.6804 95.3081 40.5095H91.3081ZM88.0961 47.4055C85.9507 49.0852 82.8639 50.0428 78.6059 50.0428V54.0428C83.4299 54.0428 87.492 52.9586 90.562 50.555L88.0961 47.4055ZM9.86345 55.7695H22.6772V51.7695H9.86345V55.7695ZM22.6772 86.0436H9.86345V90.0436H22.6772V86.0436ZM11.8634 50.9025V40.4769H7.86345V50.9025H11.8634ZM20.6772 40.4769V50.9025H24.6772V40.4769H20.6772ZM83.2483 86.0436H70.4345V90.0436H83.2483V86.0436ZM72.4345 88.0436V68.7563H68.4345V88.0436H72.4345ZM72.4345 68.7563C72.4345 66.8586 72.045 65.0021 70.7881 63.7118L67.9228 66.5029C68.1046 66.6895 68.4345 67.2656 68.4345 68.7563H72.4345ZM70.8699 63.801C69.8346 62.6007 68.4595 61.9344 66.8601 61.9344V65.9344C67.239 65.9344 67.5274 66.05 67.8409 66.4136L70.8699 63.801ZM66.8601 61.9344C65.2511 61.9344 63.7454 62.6703 62.3925 63.7261L64.8534 66.8795C65.8384 66.1108 66.4908 65.9344 66.8601 65.9344V61.9344ZM62.3925 63.7261C60.9237 64.8723 59.8529 66.3512 59.1884 68.1169L62.932 69.5259C63.3465 68.4247 63.9842 67.5578 64.8534 66.8795L62.3925 63.7261ZM59.0602 68.8214V88.0436H63.0602V68.8214H59.0602ZM61.0602 86.0436H48.2464V90.0436H61.0602V86.0436ZM50.2464 88.0436V68.7563H46.2464V88.0436H50.2464ZM50.2464 68.7563C50.2464 66.8586 49.8569 65.0021 48.5999 63.7118L45.7347 66.5029C45.9165 66.6895 46.2464 67.2656 46.2464 68.7563H50.2464ZM48.6818 63.801C47.6465 62.6007 46.2714 61.9344 44.672 61.9344V65.9344C45.0509 65.9344 45.3393 66.05 45.6528 66.4136L48.6818 63.801ZM44.672 61.9344C43.063 61.9344 41.5573 62.6703 40.2044 63.7261L42.6652 66.8795C43.6503 66.1108 44.3027 65.9344 44.672 65.9344V61.9344ZM40.2044 63.7261C38.7356 64.8723 37.6648 66.3512 37.0003 68.1169L40.7439 69.5259C41.1584 68.4247 41.7961 67.5578 42.6652 66.8795L40.2044 63.7261ZM36.8721 68.8214V88.0436H40.8721V68.8214H36.8721ZM38.8721 86.0436H26.0583V90.0436H38.8721V86.0436ZM28.0583 88.0436V53.7695H24.0583V88.0436H28.0583ZM26.0583 55.7695H37.5907V51.7695H26.0583V55.7695ZM35.5907 53.7695V58.852H39.5907V53.7695H35.5907ZM39.2492 59.9697C40.2806 58.4394 41.7023 57.2657 43.5796 56.4514L41.9877 52.7818C39.4588 53.8788 37.4186 55.5287 35.9322 57.7342L39.2492 59.9697ZM43.6097 56.438C45.4978 55.5817 47.8114 55.1179 50.6068 55.1179V51.1179C47.3774 51.1179 44.4756 51.6532 41.9576 52.7951L43.6097 56.438ZM50.6068 55.1179C53.298 55.1179 54.9671 55.6849 55.9481 56.4891L58.484 53.3957C56.4976 51.7672 53.7605 51.1179 50.6068 51.1179V55.1179ZM55.9481 56.4891C57.1959 57.512 57.9271 58.5764 58.2815 59.6661L62.0853 58.4288C61.4507 56.4777 60.2036 54.8054 58.484 53.3957L55.9481 56.4891ZM61.8419 60.1652C62.8836 58.6196 64.3261 57.3914 66.2319 56.4895L64.5209 52.8739C62.0206 54.0572 60.001 55.7395 58.5249 57.9297L61.8419 60.1652ZM66.2319 56.4895C68.1358 55.5886 70.3109 55.1179 72.7949 55.1179V51.1179C69.7937 51.1179 67.0232 51.6898 64.5209 52.8739L66.2319 56.4895ZM72.7949 55.1179C74.924 55.1179 76.3956 55.4978 77.3735 56.0768L79.4116 52.635C77.6019 51.5634 75.3418 51.1179 72.7949 51.1179V55.1179ZM77.3735 56.0768C78.4793 56.7317 79.234 57.5317 79.7186 58.468L83.2711 56.6296C82.4068 54.9594 81.0933 53.6309 79.4116 52.635L77.3735 56.0768ZM79.7439 58.5153C80.3535 59.6198 80.7475 60.7665 80.9352 61.9637L84.8869 61.344C84.6251 59.6742 84.0748 58.0842 83.2458 56.5822L79.7439 58.5153ZM80.9367 61.9731C81.1477 63.2778 81.2483 64.451 81.2483 65.4983H85.2483C85.2483 64.1997 85.124 62.81 84.8854 61.3345L80.9367 61.9731ZM81.2483 65.4983V88.0436H85.2483V65.4983H81.2483ZM103.577 86.6952C100.63 86.6952 98.0987 86.2477 95.9468 85.4006L94.4817 89.1227C97.1856 90.187 100.229 90.6952 103.577 90.6952V86.6952ZM95.9468 85.4006C93.7433 84.5333 91.9356 83.3709 90.4859 81.9324L87.6684 84.7717C89.5458 86.6346 91.8296 88.0787 94.4817 89.1227L95.9468 85.4006ZM90.5233 81.9705C89.0768 80.4564 87.9813 78.7601 87.224 76.8731L83.5118 78.3629C84.463 80.733 85.8404 82.8594 87.6311 84.7337L90.5233 81.9705ZM87.2374 76.9072C86.517 75.0126 86.154 73.0168 86.154 70.9065H82.154C82.154 73.4877 82.6003 75.9663 83.4985 78.3288L87.2374 76.9072ZM86.154 70.9065C86.154 68.7962 86.517 66.8005 87.2374 64.9058L83.4985 63.4843C82.6003 65.8467 82.154 68.3253 82.154 70.9065H86.154ZM87.2291 64.9271C87.9862 63.0022 89.0762 61.3186 90.5052 59.8613L87.6491 57.0608C85.841 58.9048 84.4581 61.044 83.5067 63.463L87.2291 64.9271ZM90.4859 59.8807C91.9356 58.4422 93.7433 57.2798 95.9468 56.4124L94.4817 52.6904C91.8296 53.7344 89.5458 55.1784 87.6684 57.0413L90.4859 59.8807ZM95.9468 56.4124C98.0987 55.5654 100.63 55.1179 103.577 55.1179V51.1179C100.229 51.1179 97.1856 51.6261 94.4817 52.6904L95.9468 56.4124ZM103.577 55.1179C106.574 55.1179 109.099 55.567 111.195 56.4077L112.684 52.6951C110.015 51.6245 106.964 51.1179 103.577 51.1179V55.1179ZM111.207 56.4124C113.407 57.2784 115.183 58.4356 116.581 59.8613L119.437 57.0608C117.598 55.1849 115.328 53.7358 112.672 52.6904L111.207 56.4124ZM116.601 59.8807C118.061 61.3298 119.137 62.9958 119.844 64.8934L123.593 63.4968C122.681 61.0504 121.285 58.8937 119.418 57.0413L116.601 59.8807ZM119.863 64.94C120.62 66.8262 121 68.8101 121 70.9065H125C125 68.3115 124.526 65.821 123.575 63.4502L119.863 64.94ZM121 70.9065C121 73.003 120.62 74.9868 119.863 76.8731L123.575 78.3629C124.526 75.9921 125 73.5016 125 70.9065H121ZM119.849 76.9072C119.142 78.7665 118.061 80.4452 116.582 81.9508L119.436 84.7533C121.285 82.8706 122.676 80.7266 123.588 78.3288L119.849 76.9072ZM116.581 81.9518C115.183 83.3774 113.407 84.5347 111.207 85.4006L112.672 89.1227C115.328 88.0773 117.598 86.6281 119.437 84.7523L116.581 81.9518ZM111.195 85.4054C109.099 86.2461 106.574 86.6952 103.577 86.6952V90.6952C106.964 90.6952 110.015 90.1886 112.684 89.1179L111.195 85.4054ZM95.305 70.9065C95.305 72.6623 95.6168 74.2932 96.3096 75.7434L99.9189 74.0192C99.5326 73.2105 99.305 72.1916 99.305 70.9065H95.305ZM96.3231 75.7711C97.0098 77.1533 97.9855 78.285 99.2568 79.1039L101.423 75.7411C100.806 75.3437 100.298 74.7812 99.9054 73.9914L96.3231 75.7711ZM99.3132 79.1389C100.599 79.908 102.04 80.2696 103.577 80.2696V76.2696C102.686 76.2696 101.969 76.0664 101.366 75.7061L99.3132 79.1389ZM103.577 80.2696C105.114 80.2696 106.555 79.908 107.841 79.1389L105.788 75.7061C105.185 76.0664 104.468 76.2696 103.577 76.2696V80.2696ZM107.897 79.1039C109.168 78.285 110.144 77.1533 110.831 75.7711L107.249 73.9914C106.856 74.7812 106.348 75.3437 105.731 75.7411L107.897 79.1039ZM110.844 75.7434C111.537 74.2932 111.849 72.6623 111.849 70.9065H107.849C107.849 72.1915 107.621 73.2105 107.235 74.0192L110.844 75.7434ZM111.849 70.9065C111.849 69.1538 111.538 67.5308 110.831 66.1071L107.249 67.8868C107.62 68.6351 107.849 69.6185 107.849 70.9065H111.849ZM110.844 66.1349C110.159 64.7007 109.168 63.5329 107.841 62.7393L105.788 66.1721C106.349 66.5079 106.841 67.0343 107.235 67.859L110.844 66.1349ZM107.897 62.7743C106.604 61.9413 105.143 61.5435 103.577 61.5435V65.5435C104.439 65.5435 105.136 65.7538 105.731 66.1371L107.897 62.7743ZM103.577 61.5435C102.011 61.5435 100.55 61.9413 99.2568 62.7743L101.423 66.1371C102.018 65.7538 102.715 65.5435 103.577 65.5435V61.5435ZM99.3132 62.7393C97.9863 63.5329 96.9947 64.7007 96.3096 66.1349L99.9189 67.859C100.313 67.0343 100.805 66.5079 101.366 66.1721L99.3132 62.7393ZM96.3231 66.1071C95.6158 67.5308 95.305 69.1538 95.305 70.9065H99.305C99.305 69.6184 99.5336 68.6351 99.9054 67.8868L96.3231 66.1071ZM9.86345 79.1293H22.6772V75.1293H9.86345V79.1293ZM20.6772 77.1293V111.078H24.6772V77.1293H20.6772ZM20.6772 111.078C20.6772 112.595 20.9992 114.067 21.9067 115.236L25.0664 112.783C24.8948 112.562 24.6772 112.08 24.6772 111.078H20.6772ZM21.9977 115.345C23.0475 116.516 24.4775 116.987 25.9819 116.987V112.987C25.3281 112.987 25.0946 112.807 24.9753 112.674L21.9977 115.345ZM25.9819 116.987C26.7343 116.987 27.4998 116.866 28.2675 116.654L27.2031 112.799C26.712 112.934 26.3085 112.987 25.9819 112.987V116.987ZM28.2675 116.654C28.3812 116.623 28.48 116.6 28.5876 116.575C28.6813 116.554 28.8368 116.52 28.9827 116.482C29.3445 116.387 29.7017 116.255 30.131 116.013L28.167 112.528C28.099 112.566 28.0626 112.582 28.0465 112.588C28.0319 112.594 28.0127 112.601 27.9691 112.613C27.9077 112.629 27.8502 112.641 27.7041 112.674C27.572 112.704 27.4042 112.743 27.2031 112.799L28.2675 116.654ZM27.1974 114.708C27.8837 117.77 30.3909 120.84 33.2233 123.577L36.0027 120.7C33.215 118.007 31.5072 115.647 31.1006 113.833L27.1974 114.708ZM33.7852 120.318C33.1654 120.6 31.6049 121.122 29.8434 121.647C28.1114 122.164 26.3911 122.624 25.518 122.801L26.3108 126.721C27.371 126.507 29.2357 126.003 30.9875 125.48C32.7098 124.966 34.5319 124.372 35.4408 123.959L33.7852 120.318ZM25.5089 122.803C23.7372 123.169 22.0753 123.348 20.5191 123.348V127.348C22.38 127.348 24.3149 127.135 26.3199 126.72L25.5089 122.803ZM20.5191 123.348C17.4184 123.348 15.3395 122.581 13.9819 121.334L11.2752 124.279C13.6044 126.42 16.7858 127.348 20.5191 127.348V123.348ZM14.0004 121.351C12.6541 120.082 11.8634 118.211 11.8634 115.443H7.86345C7.86345 119.017 8.91621 122.056 11.2567 124.262L14.0004 121.351ZM11.8634 115.443V77.1293H7.86345V115.443H11.8634ZM48.2016 123.348C45.2547 123.348 42.7233 122.9 40.5714 122.053L39.1063 125.775C41.8102 126.839 44.854 127.348 48.2016 127.348V123.348ZM40.5714 122.053C38.3679 121.186 36.5602 120.023 35.1105 118.585L32.293 121.424C34.1704 123.287 36.4542 124.731 39.1063 125.775L40.5714 122.053ZM35.1479 118.623C33.7014 117.109 32.6059 115.413 31.8486 113.526L28.1364 115.015C29.0876 117.385 30.465 119.512 32.2557 121.386L35.1479 118.623ZM31.8619 113.56C31.1416 111.665 30.7786 109.669 30.7786 107.559H26.7786C26.7786 110.14 27.2248 112.619 28.1231 114.981L31.8619 113.56ZM30.7786 107.559C30.7786 105.449 31.1416 103.453 31.8619 101.558L28.1231 100.137C27.2248 102.499 26.7786 104.978 26.7786 107.559H30.7786ZM31.8537 101.58C32.6108 99.6546 33.7008 97.9711 35.1298 96.5137L32.2737 93.7132C30.4656 95.5572 29.0827 97.6964 28.1313 100.115L31.8537 101.58ZM35.1105 96.5331C36.5602 95.0946 38.3679 93.9323 40.5714 93.0649L39.1063 89.3428C36.4542 90.3868 34.1704 91.8308 32.293 93.6937L35.1105 96.5331ZM40.5714 93.0649C42.7233 92.2178 45.2547 91.7703 48.2016 91.7703V87.7703C44.854 87.7703 41.8102 88.2785 39.1063 89.3428L40.5714 93.0649ZM48.2016 91.7703C51.1987 91.7703 53.7235 92.2194 55.8198 93.0601L57.3087 89.3476C54.6392 88.2769 51.5889 87.7703 48.2016 87.7703V91.7703ZM55.8317 93.0649C58.0317 93.9308 59.8081 95.0881 61.2059 96.5137L64.062 93.7132C62.2227 91.8374 59.9527 90.3882 57.2968 89.3428L55.8317 93.0649ZM61.2252 96.5331C62.6856 97.9822 63.762 99.6482 64.4691 101.546L68.2174 100.149C67.3058 97.7028 65.9094 95.5461 64.0427 93.6937L61.2252 96.5331ZM64.4871 101.592C65.2441 103.479 65.6246 105.462 65.6246 107.559H69.6246C69.6246 104.964 69.1508 102.473 68.1993 100.103L64.4871 101.592ZM65.6246 107.559C65.6246 109.655 65.2441 111.639 64.4871 113.526L68.1993 115.015C69.1508 112.644 69.6246 110.154 69.6246 107.559H65.6246ZM64.4738 113.56C63.7669 115.419 62.6853 117.098 61.2069 118.603L64.061 121.406C65.9097 119.523 67.301 117.379 68.2127 114.981L64.4738 113.56ZM61.2059 118.604C59.8081 120.03 58.0316 121.187 55.8317 122.053L57.2968 125.775C59.9527 124.73 62.2227 123.281 64.062 121.405L61.2059 118.604ZM55.8198 122.058C53.7235 122.899 51.1987 123.348 48.2016 123.348V127.348C51.5889 127.348 54.6392 126.841 57.3087 125.77L55.8198 122.058ZM39.9296 107.559C39.9296 109.315 40.2414 110.946 40.9342 112.396L44.5435 110.672C44.1572 109.863 43.9296 108.844 43.9296 107.559H39.9296ZM40.9477 112.424C41.6344 113.806 42.6101 114.937 43.8814 115.756L46.0474 112.394C45.4304 111.996 44.9224 111.434 44.53 110.644L40.9477 112.424ZM43.9378 115.791C45.2237 116.56 46.6646 116.922 48.2016 116.922V112.922C47.3107 112.922 46.5935 112.719 45.991 112.359L43.9378 115.791ZM48.2016 116.922C49.7386 116.922 51.1795 116.56 52.4654 115.791L50.4122 112.359C49.8097 112.719 49.0925 112.922 48.2016 112.922V116.922ZM52.5218 115.756C53.7931 114.937 54.7688 113.806 55.4554 112.424L51.8732 110.644C51.4808 111.434 50.9728 111.996 50.3557 112.394L52.5218 115.756ZM55.469 112.396C56.1617 110.946 56.4736 109.315 56.4736 107.559H52.4736C52.4736 108.844 52.246 109.863 51.8596 110.672L55.469 112.396ZM56.4736 107.559C56.4736 105.806 56.1627 104.183 55.4554 102.76L51.8732 104.539C52.2449 105.288 52.4736 106.271 52.4736 107.559H56.4736ZM55.469 102.787C54.7839 101.353 53.7923 100.185 52.4654 99.3917L50.4122 102.825C50.9736 103.16 51.4657 103.687 51.8596 104.511L55.469 102.787ZM52.5218 99.4267C51.2285 98.5937 49.7672 98.1959 48.2016 98.1959V102.196C49.0638 102.196 49.7607 102.406 50.3557 102.79L52.5218 99.4267ZM48.2016 98.1959C46.6359 98.1959 45.1747 98.5937 43.8814 99.4267L46.0474 102.79C46.6425 102.406 47.3393 102.196 48.2016 102.196V98.1959ZM43.9378 99.3917C42.6109 100.185 41.6193 101.353 40.9342 102.787L44.5435 104.511C44.9375 103.687 45.4296 103.16 45.991 102.825L43.9378 99.3917ZM40.9477 102.76C40.2404 104.183 39.9296 105.806 39.9296 107.559H43.9296C43.9296 106.271 44.1582 105.288 44.53 104.539L40.9477 102.76ZM92.6626 123.348C90.3483 123.348 88.4444 122.917 86.8891 122.13L85.0828 125.699C87.3042 126.823 89.8514 127.348 92.6626 127.348V123.348ZM86.9213 122.146C85.376 121.329 84.1979 120.173 83.3521 118.645L79.8525 120.582C81.0749 122.79 82.8192 124.501 85.0506 125.682L86.9213 122.146ZM79.6023 119.614V138.575H83.6023V119.614H79.6023ZM68.7885 92.4219H79.9163V88.4219H68.7885V92.4219ZM77.9163 90.4219V95.5695H81.9163V90.4219H77.9163ZM81.5748 96.6873C82.6673 95.0663 83.9835 93.8616 85.5227 93.0273L83.6167 89.5107C81.4691 90.6746 79.6831 92.337 78.2578 94.4518L81.5748 96.6873ZM85.505 93.0368C87.0437 92.2227 88.9771 91.7703 91.3812 91.7703V87.7703C88.48 87.7703 85.8724 88.3171 83.6344 89.5012L85.505 93.0368ZM91.3812 91.7703C93.5159 91.7703 95.419 92.1582 97.1188 92.9047L98.7272 89.2423C96.4705 88.2512 94.0124 87.7703 91.3812 87.7703V91.7703ZM97.1188 92.9047C98.8418 93.6614 100.347 94.7367 101.646 96.1442L104.586 93.431C102.917 91.624 100.961 90.2232 98.7272 89.2423L97.1188 92.9047ZM101.646 96.1442C102.95 97.5561 103.964 99.2025 104.686 101.102L108.425 99.6806C107.529 97.3232 106.25 95.2338 104.586 93.431L101.646 96.1442ZM104.686 101.102C105.399 102.977 105.769 105.078 105.769 107.429H109.769C109.769 104.653 109.331 102.063 108.425 99.6806L104.686 101.102ZM105.769 107.429C105.769 110.603 105.168 113.36 104.013 115.745L107.614 117.488C109.067 114.485 109.769 111.118 109.769 107.429H105.769ZM104.013 115.745C102.85 118.149 101.273 119.998 99.2914 121.35L101.545 124.654C104.149 122.878 106.17 120.47 107.614 117.488L104.013 115.745ZM99.2762 121.36C97.3864 122.675 95.2057 123.348 92.6626 123.348V127.348C95.9645 127.348 98.9542 126.457 101.56 124.644L99.2762 121.36ZM88.2115 116.922C89.4403 116.922 90.6115 116.665 91.685 116.116L89.8635 112.555C89.4084 112.788 88.8711 112.922 88.2115 112.922V116.922ZM91.6442 116.136C92.7102 115.621 93.6315 114.902 94.3956 113.994L91.3342 111.419C90.9293 111.901 90.4569 112.268 89.9043 112.535L91.6442 116.136ZM94.3956 113.994C95.1477 113.099 95.7147 112.077 96.1044 110.948L92.3231 109.643C92.0834 110.338 91.7511 110.924 91.3342 111.419L94.3956 113.994ZM96.1044 110.948C96.4971 109.81 96.6858 108.61 96.6858 107.363H92.6858C92.6858 108.202 92.5598 108.957 92.3231 109.643L96.1044 110.948ZM96.6858 107.363C96.6858 106.055 96.4687 104.812 95.9942 103.666L92.2984 105.196C92.5433 105.788 92.6858 106.5 92.6858 107.363H96.6858ZM96.0267 103.75C95.6142 102.611 94.9805 101.609 94.1197 100.778L91.3404 103.654C91.7385 104.039 92.049 104.514 92.2659 105.112L96.0267 103.75ZM94.1685 100.826C93.342 99.9707 92.3656 99.3151 91.2581 98.8646L89.7509 102.57C90.3519 102.814 90.8592 103.158 91.2916 103.605L94.1685 100.826ZM91.2581 98.8646C90.1372 98.4086 88.9332 98.1959 87.672 98.1959V102.196C88.4789 102.196 89.1633 102.331 89.7509 102.57L91.2581 98.8646ZM87.672 98.1959C86.8863 98.1959 86.11 98.3131 85.3486 98.5395L86.4884 102.374C86.896 102.252 87.2887 102.196 87.672 102.196V98.1959ZM85.4489 98.5124C84.6961 98.6943 83.985 98.9955 83.3199 99.4044L85.4149 102.812C85.7389 102.613 86.0619 102.479 86.3881 102.401L85.4489 98.5124ZM83.4349 99.3388C82.7792 99.6844 82.1563 100.128 81.5638 100.648L84.2035 103.653C84.6002 103.305 84.9664 103.053 85.2998 102.877L83.4349 99.3388ZM81.494 100.712C80.9254 101.262 80.4085 101.898 79.9372 102.607L83.2674 104.822C83.6054 104.314 83.9427 103.908 84.2733 103.589L81.494 100.712ZM79.6023 103.715V109.644H83.6023V103.715H79.6023ZM79.7486 110.395C80.2276 111.578 80.8694 112.664 81.6722 113.646L84.7696 111.115C84.2235 110.447 83.7863 109.709 83.456 108.893L79.7486 110.395ZM81.749 113.735C82.5996 114.659 83.5507 115.426 84.605 116.016L86.5577 112.525C85.9034 112.159 85.2809 111.666 84.6927 111.027L81.749 113.735ZM84.6748 116.053C85.7909 116.621 86.9766 116.922 88.2115 116.922V112.922C87.648 112.922 87.0802 112.789 86.4879 112.488L84.6748 116.053ZM27.6004 160C24.6925 160 22.1723 159.572 20.0086 158.759L18.6017 162.504C21.2939 163.515 24.3038 164 27.6004 164V160ZM20.0377 158.771C17.8234 157.899 16.0094 156.751 14.5577 155.349L11.7784 158.226C13.6538 160.037 15.9313 161.453 18.5727 162.493L20.0377 158.771ZM14.5773 155.368C13.1462 153.947 12.061 152.325 11.3095 150.49L7.6081 152.007C8.56508 154.343 9.95274 156.413 11.7588 158.206L14.5773 155.368ZM11.3095 150.49C10.556 148.651 10.1774 146.716 10.1774 144.667H6.17742C6.17742 147.224 6.65309 149.676 7.6081 152.007L11.3095 150.49ZM10.1774 144.667C10.1774 141.678 10.8458 138.99 12.1612 136.563L8.64475 134.657C6.99275 137.704 6.17742 141.054 6.17742 144.667H10.1774ZM12.1674 136.552C13.4648 134.121 15.3703 132.173 17.94 130.699L15.9496 127.229C12.7642 129.056 10.3086 131.539 8.63852 134.669L12.1674 136.552ZM17.9595 130.687C20.4578 129.216 23.6375 128.423 27.6004 128.423V124.423C23.1107 124.423 19.1866 125.323 15.93 127.24L17.9595 130.687ZM27.6004 128.423C31.5715 128.423 34.7585 129.198 37.2609 130.634L39.2513 127.164C35.9988 125.298 32.0821 124.423 27.6004 124.423V128.423ZM37.2609 130.634C39.8465 132.117 41.7533 134.033 43.0461 136.38L46.5497 134.45C44.8752 131.41 42.4208 128.982 39.2513 127.164L37.2609 130.634ZM43.0461 136.38C44.3618 138.768 45.0235 141.367 45.0235 144.211H49.0235C49.0235 140.714 48.2015 137.448 46.5497 134.45L43.0461 136.38ZM45.0235 144.211C45.0235 144.771 44.9849 145.358 44.9051 145.975L48.8721 146.488C48.9722 145.714 49.0235 144.955 49.0235 144.211H45.0235ZM44.8933 146.094C44.852 146.692 44.7914 147.21 44.7154 147.651L48.6572 148.331C48.7609 147.729 48.8352 147.073 48.8838 146.369L44.8933 146.094ZM46.6863 145.991H21.8005V149.991H46.6863V145.991ZM19.806 148.138C19.917 149.64 20.3466 151.03 21.2102 152.185L24.414 149.791C24.1087 149.382 23.8639 148.774 23.7951 147.843L19.806 148.138ZM21.29 152.285C22.1337 153.275 23.1727 154.014 24.3842 154.483L25.8261 150.751C25.2391 150.525 24.7495 150.178 24.3342 149.691L21.29 152.285ZM24.4143 154.494C25.5758 154.921 26.7761 155.138 28.0051 155.138V151.138C27.2558 151.138 26.5228 151.008 25.796 150.74L24.4143 154.494ZM28.0051 155.138C29.7014 155.138 31.313 154.765 32.8125 154.014L31.0209 150.438C30.0925 150.903 29.0964 151.138 28.0051 151.138V155.138ZM32.7867 154.027C34.4082 153.244 35.6655 152.049 36.2861 150.383L32.5379 148.986C32.3492 149.493 31.943 149.992 31.0467 150.425L32.7867 154.027ZM33.8798 151.613L44.7378 154.61L45.8022 150.754L34.9442 147.757L33.8798 151.613ZM43.4938 151.763C42.6846 153.326 41.5399 154.723 40.0288 155.953L42.5532 159.055C44.459 157.505 45.967 155.687 47.0462 153.601L43.4938 151.763ZM40.0086 155.969C38.5457 157.192 36.7785 158.19 34.6788 158.945L36.0335 162.709C38.5198 161.814 40.7092 160.596 42.5734 159.039L40.0086 155.969ZM34.7107 158.934C32.6603 159.633 30.2985 160 27.6004 160V164C30.6574 164 33.466 163.585 36.0017 162.72L34.7107 158.934ZM21.5308 142.562H33.2655V138.562H21.5308V142.562ZM35.2514 140.325C35.0855 138.936 34.6573 137.657 33.9 136.56L30.6077 138.831C30.9296 139.298 31.1757 139.93 31.2796 140.8L35.2514 140.325ZM33.9442 136.626C33.2502 135.529 32.3001 134.68 31.1372 134.088L29.3241 137.654C29.8697 137.931 30.2684 138.298 30.5636 138.764L33.9442 136.626ZM31.1765 134.109C30.0294 133.493 28.7495 133.219 27.3981 133.219V137.219C28.2049 137.219 28.8133 137.38 29.2848 137.633L31.1765 134.109ZM27.3981 133.219C26.0441 133.219 24.7604 133.494 23.5916 134.088L25.4047 137.654C25.9444 137.379 26.594 137.219 27.3981 137.219V133.219ZM23.5523 134.109C22.4534 134.699 21.5423 135.525 20.8288 136.56L24.1211 138.831C24.4866 138.301 24.9244 137.912 25.444 137.633L23.5523 134.109ZM20.7847 136.626C20.0985 137.711 19.7071 138.966 19.5449 140.325L23.5166 140.8C23.6241 139.9 23.8622 139.244 24.1652 138.764L20.7847 136.626ZM62.0881 160C59.1949 160 56.3414 159.555 53.5209 158.66L52.3113 162.473C55.5156 163.489 58.7768 164 62.0881 164V160ZM53.5543 158.671C50.8146 157.749 48.5443 156.444 46.7033 154.782L44.0222 157.75C46.3176 159.823 49.0828 161.386 52.2779 162.462L53.5543 158.671ZM47.0965 157.263L51.4802 149.639L48.0126 147.645L43.6289 155.269L47.0965 157.263ZM48.6791 150.334C50.9707 151.78 53.1997 152.929 55.3649 153.766L56.8068 150.035C54.9256 149.308 52.9283 148.285 50.8137 146.951L48.6791 150.334ZM55.3786 153.771C57.6027 154.612 59.7133 155.073 61.6835 155.073V151.073C60.3266 151.073 58.7054 150.752 56.7931 150.029L55.3786 153.771ZM61.6835 155.073C62.7068 155.073 63.7766 154.967 64.6441 154.548L62.9042 150.946C62.9135 150.942 62.8334 150.98 62.6064 151.015C62.3873 151.05 62.0846 151.073 61.6835 151.073V155.073ZM64.7772 154.478C65.9063 153.823 66.4486 152.712 66.4486 151.509H62.4486C62.4486 151.524 62.4468 151.427 62.5236 151.286C62.6048 151.137 62.7132 151.051 62.7711 151.017L64.7772 154.478ZM66.4486 151.509C66.4486 150.492 66.0018 149.612 65.2521 148.992L62.7008 152.072C62.6657 152.043 62.5911 151.969 62.5296 151.842C62.4669 151.712 62.4486 151.59 62.4486 151.509H66.4486ZM65.2521 148.992C64.6671 148.507 63.8878 148.153 63.1066 147.87L61.744 151.63C62.0511 151.742 62.2832 151.842 62.4523 151.927C62.5358 151.969 62.5972 152.004 62.6404 152.031C62.6841 152.058 62.7017 152.073 62.7008 152.072L65.2521 148.992ZM63.1463 147.884C62.3908 147.592 61.4481 147.291 60.3376 146.978L59.2527 150.828C60.3003 151.123 61.1111 151.386 61.7044 151.615L63.1463 147.884ZM60.4437 147.011C57.6879 146.066 55.4045 145.195 53.5822 144.399L51.9803 148.064C53.9347 148.918 56.3273 149.828 59.1465 150.795L60.4437 147.011ZM53.5986 144.406C51.9496 143.668 50.8479 142.837 50.1578 141.98L47.042 144.488C48.2403 145.977 49.9261 147.144 51.964 148.057L53.5986 144.406ZM50.2081 142.045C49.6341 141.269 49.2511 140.119 49.2511 138.412H45.2511C45.2511 140.702 45.7673 142.767 46.9917 144.423L50.2081 142.045ZM49.2511 138.412C49.2511 136.431 49.7571 134.768 50.7246 133.348L47.4194 131.096C45.959 133.238 45.2511 135.702 45.2511 138.412H49.2511ZM50.7371 133.33C51.7211 131.851 53.148 130.644 55.1064 129.736L53.4235 126.107C50.8859 127.284 48.8508 128.944 47.4069 131.114L50.7371 133.33ZM55.0928 129.742C57.0661 128.845 59.5123 128.358 62.4928 128.358V124.358C59.0888 124.358 56.0498 124.913 53.4372 126.101L55.0928 129.742ZM69.0911 129.388C71.2136 129.996 73.3092 131.13 75.3772 132.848L77.9336 129.771C75.5055 127.754 72.9252 126.325 70.192 125.543L69.0911 129.388ZM66.7602 134.125C65.0809 133.505 63.4693 133.154 61.9532 133.154V137.154C62.865 137.154 63.9961 137.368 65.3741 137.877L66.7602 134.125ZM61.9532 133.154C61.225 133.154 60.5142 133.235 59.8453 133.429L60.9589 137.271C61.1892 137.204 61.5125 137.154 61.9532 137.154V133.154ZM59.789 133.446C59.1167 133.662 58.4587 134.032 57.9434 134.63L60.9724 137.242C60.9583 137.259 60.9452 137.271 60.9346 137.28C60.9294 137.284 60.9253 137.288 60.9223 137.29C60.9194 137.292 60.9178 137.293 60.9178 137.293C60.9181 137.293 60.9458 137.276 61.0152 137.253L59.789 133.446ZM57.9434 134.63C57.3301 135.341 57.1207 136.194 57.1207 136.979H61.1207C61.1207 136.932 61.1269 136.949 61.1079 137.008C61.0871 137.072 61.0448 137.158 60.9724 137.242L57.9434 134.63ZM57.1207 136.979C57.1207 137.96 57.5016 138.847 58.2031 139.525L60.9825 136.648C60.9999 136.665 61.0433 136.714 61.0786 136.797C61.114 136.88 61.1207 136.949 61.1207 136.979H57.1207ZM58.3171 139.627C58.879 140.092 59.6096 140.446 60.3555 140.734L61.7975 137.003C61.1945 136.77 60.936 136.602 60.8684 136.546L58.3171 139.627ZM60.4634 140.772C61.1601 140.996 62.0321 141.262 63.075 141.569L64.2035 137.731C63.1783 137.43 62.3418 137.175 61.6896 136.965L60.4634 140.772ZM63.0926 141.574C66.0901 142.426 68.4725 143.281 70.2717 144.13L71.9787 140.513C69.9113 139.537 67.3031 138.612 64.186 137.726L63.0926 141.574ZM70.3054 144.146C72.03 144.921 73.1152 145.793 73.7462 146.677L77.0018 144.353C75.8343 142.717 74.0871 141.46 71.945 140.497L70.3054 144.146ZM73.7736 146.714C74.3906 147.537 74.7903 148.729 74.7903 150.467H78.7903C78.7903 148.121 78.2458 146.011 76.9744 144.315L73.7736 146.714ZM74.7903 150.467C74.7903 153.507 73.7099 155.722 71.5914 157.353L74.0311 160.522C77.2179 158.07 78.7903 154.638 78.7903 150.467H74.7903ZM71.5783 157.363C69.4329 159.042 66.3462 160 62.0881 160V164C66.9122 164 70.9742 162.916 74.0442 160.512L71.5783 157.363ZM20.6772 70.9065V88.0436H24.6772V70.9065H20.6772ZM28.9416 48.7848V43.6689H24.9416V48.7848H28.9416ZM25.239 44.7182C25.9789 45.9188 26.8481 47.0399 27.843 48.0813L30.7352 45.3181C29.9283 44.4735 29.2325 43.5741 28.6442 42.6195L25.239 44.7182ZM27.8611 20.4084C26.8569 21.4325 25.9815 22.5501 25.2378 23.7598L28.6454 25.8546C29.2299 24.9038 29.9195 24.0223 30.7172 23.2088L27.8611 20.4084ZM28.9416 24.8072V15.2926H24.9416V24.8072H28.9416ZM25.2378 23.7598C24.6456 24.7231 24.1394 25.7407 23.7186 26.8106L27.4411 28.2747C27.7778 27.4185 28.1795 26.6125 28.6454 25.8546L25.2378 23.7598ZM23.7237 41.7105C24.1446 42.7591 24.6497 43.7621 25.239 44.7182L28.6442 42.6195C28.1754 41.8589 27.7727 41.0597 27.4359 40.2207L23.7237 41.7105ZM28.9416 43.6689V24.8072H24.9416V43.6689H28.9416ZM10.2612 60.9089C9.62898 60.7806 9.00596 60.6074 8.39157 60.3887L7.05018 64.157C7.84135 64.4387 8.64671 64.6628 9.46566 64.829L10.2612 60.9089ZM15.5668 52.18C15.6694 51.9818 15.7576 51.7773 15.8315 51.5676L12.0592 50.2373C12.0457 50.2756 12.0306 50.3101 12.0143 50.3416L15.5668 52.18ZM13.9454 52.9025H22.6772V48.9025H13.9454V52.9025ZM22.6772 38.4769H14.1278V42.4769H22.6772V38.4769ZM16.1278 40.4769V15.2926H12.1278V40.4769H16.1278ZM23.3595 55.3303C22.7842 56.3993 22.0924 57.3164 21.2874 58.0944L24.0671 60.9707C25.1844 59.8909 26.1216 58.6384 26.8818 57.226L23.3595 55.3303ZM20.6772 59.5325V70.9065H24.6772V59.5325H20.6772ZM11.8634 88.0436V62.869H7.86345V88.0436H11.8634ZM14.1278 38.4769H9.86345V42.4769H14.1278V38.4769ZM9.86345 52.9025H13.9454V48.9025H9.86345V52.9025ZM15.8315 51.5676C16.038 50.9822 16.1278 50.3737 16.1278 49.7622H12.1278C12.1278 49.9813 12.096 50.133 12.0592 50.2373L15.8315 51.5676ZM16.1278 49.7622V40.4769H12.1278V49.7622H16.1278ZM20.6772 53.7695V59.5325H24.6772V53.7695H20.6772ZM11.8634 62.869V53.7695H7.86345V62.869H11.8634ZM21.2874 58.0944C20.6824 58.679 20.0051 59.1932 19.251 59.6366L21.2788 63.0846C22.2982 62.485 23.2292 61.7805 24.0671 60.9707L21.2874 58.0944ZM13.0487 61.1851C12.094 61.1851 11.1656 61.0925 10.2612 60.9089L9.46566 64.829C10.6381 65.067 11.8332 65.1851 13.0487 65.1851V61.1851ZM66.7885 90.4219V127.217H70.7885V90.4219H66.7885ZM69.3151 125.287C67.0512 124.669 64.7756 124.358 62.4928 124.358V128.358C64.407 128.358 66.3286 128.618 68.2619 129.146L69.3151 125.287ZM65.3916 137.884C66.1127 138.142 66.9432 138.505 67.8877 138.981L69.6893 135.41C68.6381 134.88 67.6543 134.446 66.7427 134.119L65.3916 137.884ZM66.7885 137.196V138.575H70.7885V137.196H66.7885ZM68.7885 140.575H71.305V136.575H68.7885V140.575ZM70.2934 140.3C70.4509 140.393 70.6104 140.487 70.7719 140.584L72.8274 137.153C72.6554 137.049 72.4851 136.949 72.3165 136.85L70.2934 140.3ZM73.4823 139.949L73.6707 139.656L70.3053 137.494L70.117 137.787L73.4823 139.949ZM71.988 140.575H81.6023V136.575H71.988V140.575ZM73.6707 139.656L78.3381 132.391L74.9727 130.229L70.3053 137.494L73.6707 139.656ZM70.2335 125.555C69.9277 125.46 69.6215 125.371 69.3151 125.287L68.2619 129.146C68.5241 129.218 68.7867 129.294 69.0495 129.376L70.2335 125.555ZM66.7885 127.217V137.196H70.7885V127.217H66.7885ZM67.8877 138.981C68.6271 139.354 69.4287 139.793 70.2934 140.3L72.3165 136.85C71.3919 136.308 70.5158 135.827 69.6893 135.41L67.8877 138.981ZM71.305 140.575H71.988V136.575H71.305V140.575Z" fill="#631d76" mask="url(#path-1-outside-1_304_311)"/>
</svg>
